<?xml version="1.0" encoding="UTF-8"?>
<svg version="1.1" xmlns="http://www.w3.org/2000/svg" width="600" height="600">
<path d="M0 0 C0.96608185 -0.00979385 1.9321637 -0.01958771 2.92752075 -0.02967834 C25.12053537 -0.20818665 46.6479541 0.13036684 68.515625 4.23828125 C70.16183838 4.54378906 70.16183838 4.54378906 71.84130859 4.85546875 C98.56068927 10.01079365 124.1902337 19.12122423 148.515625 31.23828125 C149.30743164 31.62870605 150.09923828 32.01913086 150.91503906 32.42138672 C161.96059213 37.91082178 172.32044395 44.30794705 182.515625 51.23828125 C183.45365967 51.87467529 183.45365967 51.87467529 184.41064453 52.52392578 C193.25203396 58.56857327 201.4520148 65.19758517 209.515625 72.23828125 C210.62357422 73.19541016 210.62357422 73.19541016 211.75390625 74.171875 C213.68581186 75.84825802 215.6015718 77.54156079 217.515625 79.23828125 C218.32773437 79.94597656 219.13984375 80.65367188 219.9765625 81.3828125 C224.51317543 85.38129867 228.73631966 89.41541825 232.62890625 94.04296875 C234.88488927 96.66794278 237.26450061 99.15907807 239.640625 101.67578125 C284.7549647 150.3208084 313.19262763 220.45150185 313.75390625 286.72265625 C313.7637001 287.6887381 313.77349396 288.65481995 313.78358459 289.650177 C313.9620929 311.84319162 313.62353941 333.37061035 309.515625 355.23828125 C309.31195312 356.33575684 309.10828125 357.43323242 308.8984375 358.56396484 C303.7431126 385.28334552 294.63268202 410.91288995 282.515625 435.23828125 C282.1252002 436.03008789 281.73477539 436.82189453 281.33251953 437.63769531 C275.84308447 448.68324838 269.4459592 459.0431002 262.515625 469.23828125 C262.0913623 469.8636377 261.66709961 470.48899414 261.22998047 471.13330078 C255.18533298 479.97469021 248.55632108 488.17467105 241.515625 496.23828125 C240.55849609 497.34623047 240.55849609 497.34623047 239.58203125 498.4765625 C237.90564823 500.40846811 236.21234546 502.32422805 234.515625 504.23828125 C233.80792969 505.05039062 233.10023438 505.8625 232.37109375 506.69921875 C228.37260758 511.23583168 224.338488 515.45897591 219.7109375 519.3515625 C217.08596347 521.60754552 214.59482818 523.98715686 212.078125 526.36328125 C163.43309785 571.47762095 93.3024044 599.91528388 27.03125 600.4765625 C26.06516815 600.48635635 25.0990863 600.49615021 24.10372925 600.50624084 C1.91071463 600.68474915 -19.6167041 600.34619566 -41.484375 596.23828125 C-42.58185059 596.03460937 -43.67932617 595.8309375 -44.81005859 595.62109375 C-71.52943927 590.46576885 -97.1589837 581.35533827 -121.484375 569.23828125 C-122.27618164 568.84785645 -123.06798828 568.45743164 -123.88378906 568.05517578 C-134.92934213 562.56574072 -145.28919395 556.16861545 -155.484375 549.23828125 C-156.10973145 548.81401855 -156.73508789 548.38975586 -157.37939453 547.95263672 C-166.22078396 541.90798923 -174.4207648 535.27897733 -182.484375 528.23828125 C-183.59232422 527.28115234 -183.59232422 527.28115234 -184.72265625 526.3046875 C-186.65456186 524.62830448 -188.5703218 522.93500171 -190.484375 521.23828125 C-191.29648438 520.53058594 -192.10859375 519.82289063 -192.9453125 519.09375 C-197.48192543 515.09526383 -201.70506966 511.06114425 -205.59765625 506.43359375 C-207.85363927 503.80861972 -210.23325061 501.31748443 -212.609375 498.80078125 C-257.7237147 450.1557541 -286.16137763 380.02506065 -286.72265625 313.75390625 C-286.7324501 312.7878244 -286.74224396 311.82174255 -286.75233459 310.8263855 C-286.9308429 288.63337088 -286.59228941 267.10595215 -282.484375 245.23828125 C-282.17886719 243.59206787 -282.17886719 243.59206787 -281.8671875 241.91259766 C-276.7118626 215.19321698 -267.60143202 189.56367255 -255.484375 165.23828125 C-255.0939502 164.44647461 -254.70352539 163.65466797 -254.30126953 162.83886719 C-248.81183447 151.79331412 -242.4147092 141.4334623 -235.484375 131.23828125 C-235.0601123 130.6129248 -234.63584961 129.98756836 -234.19873047 129.34326172 C-228.15408298 120.50187229 -221.52507108 112.30189145 -214.484375 104.23828125 C-213.84628906 103.49964844 -213.20820313 102.76101562 -212.55078125 102 C-210.87439823 100.06809439 -209.18109546 98.15233445 -207.484375 96.23828125 C-206.77667969 95.42617187 -206.06898438 94.6140625 -205.33984375 93.77734375 C-201.34135758 89.24073082 -197.307238 85.01758659 -192.6796875 81.125 C-190.05471347 78.86901698 -187.56357818 76.48940564 -185.046875 74.11328125 C-136.40184785 28.99894155 -66.2711544 0.56127862 0 0 Z " fill="#7F8CD8" transform="translate(286.484375,-0.23828125)"/>
<path d="M0 0 C4.18736668 -0.08760181 8.37449531 -0.14059435 12.5625 -0.1875 C13.74392578 -0.21263672 14.92535156 -0.23777344 16.14257812 -0.26367188 C28.36423424 -0.36637487 28.36423424 -0.36637487 33 3 C36.9813434 10.43603984 38.8534151 19.0511787 41.08203125 27.1328125 C41.46258306 28.49606784 41.84367331 29.85917297 42.2252655 31.22213745 C43.22525295 34.79865759 44.2188389 38.37692243 45.21075439 41.95568848 C46.78040259 47.61431878 48.36021777 53.27012476 49.93893051 58.92623138 C50.51762375 61.00097371 51.09504254 63.07606797 51.6723938 65.15118408 C54.29097987 74.54823284 56.98670236 83.92103199 59.80293274 93.26101685 C61.54655147 99.12399894 62.90550721 104.98183205 64 111 C66.4153283 104.69183489 68.60629617 98.32691605 70.73828125 91.91796875 C71.09587524 90.84605286 71.45346924 89.77413696 71.82189941 88.66973877 C72.588827 86.36949337 73.3550097 84.06899951 74.12051392 81.76828003 C75.32279201 78.15658235 76.52877555 74.54613649 77.73510742 70.93579102 C81.60691156 59.32935417 85.43415318 47.71222347 89.125 36.046875 C89.75730032 34.05961819 90.38970304 32.07239396 91.0222168 30.08520508 C92.19699949 26.39220224 93.35147916 22.69364029 94.49536133 18.9909668 C95.02351233 17.32577455 95.55236048 15.6608032 96.08203125 13.99609375 C96.30532104 13.25272766 96.52861084 12.50936157 96.75866699 11.74346924 C98.28186304 7.03171062 100.10257291 4.07712938 104 1 C106.140625 0.36889648 106.140625 0.36889648 108.25 0.37109375 C109.0234375 0.36916016 109.796875 0.36722656 110.59375 0.36523438 C111.3878125 0.38908203 112.181875 0.41292969 113 0.4375 C113.7940625 0.42654297 114.588125 0.41558594 115.40625 0.40429688 C119.0624837 0.4499998 121.25984995 0.59053093 124.52514648 2.39697266 C128.11761637 6.17549825 129.26673919 10.31095331 130.84765625 15.21484375 C131.18623154 16.22156631 131.52480682 17.22828888 131.87364197 18.26551819 C132.95200251 21.48461189 134.00731646 24.71074439 135.0625 27.9375 C135.7752257 30.07405764 136.48940393 32.21013132 137.20507812 34.34570312 C140.25264763 43.47259541 143.22225833 52.61625094 146.0090332 61.82641602 C147.25005921 65.80081784 148.57549702 69.74372148 149.91015625 73.6875 C150.16646317 74.44619888 150.42277008 75.20489777 150.68684387 75.98658752 C151.74296974 79.10985912 152.80027741 82.23268239 153.86645508 85.35253906 C157.10036651 94.82814643 160.01061939 104.17139616 162 114 C162.41958984 112.12634766 162.41958984 112.12634766 162.84765625 110.21484375 C165.2620778 99.6499515 168.03928535 89.28640532 171.27172852 78.94311523 C173.52960898 71.67284941 175.55687412 64.36020961 177.5 57 C179.98983109 47.58136469 182.67741862 38.24893207 185.58154297 28.94970703 C186.8747006 24.78971952 188.12468299 20.64449058 189.15234375 16.41015625 C189.32096924 15.72010498 189.48959473 15.03005371 189.66333008 14.3190918 C190.08654625 12.53692871 190.4858888 10.74914017 190.8828125 8.9609375 C192.29113744 5.22838398 193.92651306 3.53515832 197 1 C200.13793945 0.43237305 200.13793945 0.43237305 203.61328125 0.51171875 C204.86044922 0.52783203 206.10761719 0.54394531 207.39257812 0.56054688 C208.68615234 0.60244141 209.97972656 0.64433594 211.3125 0.6875 C212.62541016 0.71005859 213.93832031 0.73261719 215.29101562 0.75585938 C218.5285013 0.81472275 221.76367 0.89691196 225 1 C219.68459542 18.9056178 214.19323857 36.75860675 208.55859375 54.56640625 C206.4575549 61.21622889 204.44843989 67.88004784 202.51928711 74.58154297 C199.43968675 85.27733213 196.11959294 95.85251572 192.55078125 106.39453125 C190.28639431 113.08494974 188.24864145 119.83890238 186.21875 126.60351562 C185.62234396 128.58842947 185.02463386 130.57295183 184.42578125 132.55712891 C183.82653781 134.54291296 183.23000389 136.52951752 182.63671875 138.51708984 C182.35441406 139.45246582 182.07210937 140.3878418 181.78125 141.3515625 C181.53439453 142.17479004 181.28753906 142.99801758 181.03320312 143.84619141 C179.47428907 148.60471025 177.71123261 153.29411033 176 158 C167.09 158 158.18 158 149 158 C147.5975 153.813125 146.195 149.62625 144.75 145.3125 C144.0998291 143.37564331 144.0998291 143.37564331 143.43652344 141.3996582 C141.15929792 134.5839821 138.97898512 127.74717122 136.88427734 120.87329102 C135.79408511 117.33091873 134.62838237 113.82226224 133.4375 110.3125 C131.79894496 105.45145339 130.25415944 100.57528308 128.8125 95.65234375 C127.77522979 92.26625493 126.63593217 88.91638361 125.5 85.5625 C123.69194636 80.21930668 122.10767471 74.85403156 120.67578125 69.3984375 C120.07440815 67.26408441 119.37548692 65.24822621 118.5625 63.1875 C116.23692809 57.28697979 114.68931733 51.10555299 113 45 C111.09043563 48.43721587 110.10989743 51.90501192 109.0625 55.6875 C106.5967711 64.33785715 103.74616343 72.85298435 100.875 81.375 C96.88413522 93.22993511 93.03428922 105.12036275 89.3125 117.0625 C85.04039381 130.76799758 80.59210384 144.39697541 76 158 C66.76 158 57.52 158 48 158 C41.79043657 138.85384609 35.78996715 119.65633512 29.89041138 100.4132843 C25.78963657 87.04450516 21.66226941 73.68391074 17.53674316 60.32275391 C16.37755079 56.56840803 15.21909683 52.81383478 14.06085205 49.05919647 C13.17530871 46.18905653 12.28917972 43.3190976 11.40293884 40.44917297 C10.97505103 39.06308932 10.54740567 37.67693079 10.12001038 36.29069519 C8.12135109 29.80846381 6.11651417 23.32900987 4.03417969 16.87304688 C3.74767548 15.98248596 3.46117126 15.09192505 3.16598511 14.17437744 C2.65514668 12.59398876 2.13943888 11.01516046 1.61746216 9.43841553 C0.52826495 6.07169623 0 3.58745886 0 0 Z " fill="#F5F5F6" transform="translate(65,226)"/>
<path d="M0 0 C12.06315668 8.58100836 19.41645087 20.29827406 22.5234375 34.8046875 C25.44363521 53.50973767 22.4416882 71.98921956 11.203125 87.46875 C2.41797069 97.89128074 -9.23519928 104.30018775 -22.7265625 106.3671875 C-24.05799549 106.47677046 -25.39195483 106.5576511 -26.7265625 106.6171875 C-27.60570312 106.66875 -28.48484375 106.7203125 -29.390625 106.7734375 C-44.55543711 107.25358986 -58.49245678 103.23307194 -70.1015625 93.3046875 C-82.06823509 81.81668182 -87.43743846 66.97662392 -88.06079102 50.60083008 C-88.37721076 33.75100504 -83.7022799 18.19683369 -72 5.6875 C-52.71873448 -11.87104076 -21.78145365 -14.16851839 0 0 Z " fill="#F5F5F6" transform="translate(368.7265625,279.3828125)"/>
<path d="M0 0 C1.35183113 1.11755595 2.67149576 2.27394386 3.98046875 3.44140625 C1.69101304 7.82952969 -0.90553279 11.88409379 -3.83203125 15.87890625 C-4.45722656 16.74386719 -5.08242188 17.60882813 -5.7265625 18.5 C-8.01953125 20.44140625 -8.01953125 20.44140625 -11.359375 20.96484375 C-15.52011285 20.36981827 -18.32177262 18.87514354 -21.76953125 16.62890625 C-34.09972821 9.19825457 -47.35290432 7.33896419 -61.52734375 10.1328125 C-68.08831602 12.13802014 -73.65980873 15.18058235 -79.01953125 19.44140625 C-79.63441406 19.91964844 -80.24929688 20.39789063 -80.8828125 20.890625 C-92.04178615 30.71349094 -95.33520059 45.97776976 -96.26171875 60.14453125 C-96.60298538 77.35953695 -92.61312506 93.31209385 -81.01953125 106.44140625 C-70.75554095 116.34783951 -58.41979345 118.85233306 -44.7109375 118.65234375 C-32.8225026 118.26334628 -23.29207857 114.73822399 -14.20703125 107.06640625 C-12.01953125 105.44140625 -12.01953125 105.44140625 -9.73828125 105.01171875 C-5.84746947 105.6266459 -3.91505019 107.92915742 -1.33203125 110.69140625 C-0.84669922 111.18253906 -0.36136719 111.67367187 0.13867188 112.1796875 C2.61877475 114.74531116 4.62864954 117.12114855 5.98046875 120.44140625 C-8.3696758 136.57705266 -26.23880216 143.35976104 -47.6796875 144.6640625 C-69.88012588 145.20098162 -89.42565619 138.09658669 -105.73828125 122.81640625 C-123.81057094 104.00141972 -126.54244271 80.37646303 -126.30078125 55.56640625 C-126.09407173 47.6287605 -124.90815117 40.88007454 -122.01953125 33.44140625 C-121.64570313 32.384375 -121.271875 31.32734375 -120.88671875 30.23828125 C-113.86111277 11.72045886 -99.84680595 -1.71138312 -82.2421875 -10.20703125 C-54.70030124 -21.75793143 -23.71016898 -18.29856368 0 0 Z " fill="#F5F6F6" transform="translate(528.01953125,241.55859375)"/>
<path d="M0 0 C0.7734375 -0.02449219 1.546875 -0.04898437 2.34375 -0.07421875 C9.03291032 -0.10788902 14.14252204 1.70098164 19.23828125 6.0859375 C28.17801582 17.31994023 29.224507 30.29878781 28.25 44.375 C26.94536136 54.70247564 24.47325243 62.94659033 16.375 69.8125 C8.81353676 73.59323162 0.24318037 74.7666368 -8.0546875 72.83984375 C-15.34399532 70.32296954 -19.16186966 66.37291975 -22.68359375 59.60546875 C-28.29956359 47.85924613 -28.63131248 31.60516464 -25 19.1875 C-22.09670244 11.03593376 -18.20572736 6.09009053 -11.109375 1.2578125 C-7.44952591 -0.11160123 -3.87601954 0.00633337 0 0 Z " fill="#7387D5" transform="translate(335.75,291.625)"/>
</svg>
