<?xml version="1.0" encoding="UTF-8"?>
<svg version="1.1" xmlns="http://www.w3.org/2000/svg" width="600" height="600">
<path d="M0 0 C0.98399277 -0.00701431 1.96798553 -0.01402863 2.98179626 -0.02125549 C6.1428591 -0.03867606 9.30373466 -0.04510845 12.46484375 -0.046875 C14.08362427 -0.04788712 14.08362427 -0.04788712 15.73510742 -0.04891968 C31.49723023 -0.03323962 46.86232962 0.32348797 62.40234375 3.203125 C63.38912109 3.38004883 64.37589844 3.55697266 65.39257812 3.73925781 C118.30173976 13.42755781 171.31805476 35.88553399 210.99609375 72.97265625 C213.01661818 74.84557744 215.07067541 76.6501902 217.15625 78.44921875 C228.18321841 88.06988266 238.47121728 98.61095527 247.40234375 110.203125 C248.27640419 111.28956767 249.15284586 112.37409751 250.03125 113.45703125 C260.35563289 126.25579322 269.21912063 139.95212099 277.40234375 154.203125 C277.73975586 154.7899707 278.07716797 155.37681641 278.42480469 155.98144531 C294.14878357 183.64030768 304.58605879 214.98833078 310.40234375 246.203125 C310.53191467 246.84441345 310.6614856 247.4857019 310.79498291 248.14642334 C313.91138911 263.84134434 313.93202328 279.61102687 313.90332031 295.54394531 C313.89863275 298.54923812 313.91233598 301.5534693 313.94433594 304.55859375 C314.67078774 373.67221288 289.37835966 446.71581057 241.6328125 497.796875 C239.75989131 499.81739943 237.95527855 501.87145666 236.15625 503.95703125 C226.53558609 514.98399966 215.99451348 525.27199853 204.40234375 534.203125 C203.31590108 535.07718544 202.23137124 535.95362711 201.1484375 536.83203125 C188.34967553 547.15641414 174.65334776 556.01990188 160.40234375 564.203125 C159.81549805 564.54053711 159.22865234 564.87794922 158.62402344 565.22558594 C130.96516107 580.94956482 99.61713797 591.38684004 68.40234375 597.203125 C67.7610553 597.33269592 67.11976685 597.46226685 66.45904541 597.59576416 C50.76412441 600.71217036 34.99444188 600.73280453 19.06152344 600.70410156 C16.05623063 600.699414 13.05199945 600.71311723 10.046875 600.74511719 C-59.06674413 601.47156899 -132.11034182 576.17914091 -183.19140625 528.43359375 C-185.21193068 526.56067256 -187.26598791 524.7560598 -189.3515625 522.95703125 C-200.37853091 513.33636734 -210.66652978 502.79529473 -219.59765625 491.203125 C-220.47171669 490.11668233 -221.34815836 489.03215249 -222.2265625 487.94921875 C-232.55094539 475.15045678 -241.41443313 461.45412901 -249.59765625 447.203125 C-249.93506836 446.6162793 -250.27248047 446.02943359 -250.62011719 445.42480469 C-272.62387466 406.71965862 -286.58729031 359.23828016 -286.80078125 314.60546875 C-286.80779556 313.62147598 -286.81480988 312.63748322 -286.82203674 311.62367249 C-286.83945731 308.46260965 -286.8458897 305.30173409 -286.84765625 302.140625 C-286.84833099 301.06143799 -286.84900574 299.98225098 -286.84970093 298.87036133 C-286.83402087 283.10823852 -286.47729328 267.74313913 -283.59765625 252.203125 C-283.42073242 251.21634766 -283.24380859 250.22957031 -283.06152344 249.21289062 C-273.37322344 196.30372899 -250.91524726 143.28741399 -213.828125 103.609375 C-211.95520381 101.58885057 -210.15059105 99.53479334 -208.3515625 97.44921875 C-198.73089859 86.42225034 -188.18982598 76.13425147 -176.59765625 67.203125 C-175.51121358 66.32906456 -174.42668374 65.45262289 -173.34375 64.57421875 C-160.54498803 54.24983586 -146.84866026 45.38634812 -132.59765625 37.203125 C-132.01081055 36.86571289 -131.42396484 36.52830078 -130.81933594 36.18066406 C-92.11418987 14.17690659 -44.63281141 0.21349094 0 0 Z " fill="#A39299" transform="translate(286.59765625,-0.203125)"/>
<path d="M0 0 C16.72380939 14.45360902 24.53661752 33.24674735 27.27734375 54.86328125 C27.51425213 59.81897386 27.52302795 64.77745551 27.52734375 69.73828125 C27.52801849 70.43302551 27.52869324 71.12776978 27.52938843 71.84356689 C27.51295735 82.49059982 26.94727901 92.50651624 24.27734375 102.86328125 C24.11105469 103.54422852 23.94476563 104.22517578 23.7734375 104.92675781 C18.90383044 124.61259525 11.10475723 142.50535775 -6.5546875 153.77734375 C-13.73818848 157.37556586 -20.81781777 157.8481178 -28.72265625 156.86328125 C-32.55518603 155.40598643 -35.5404638 153.42734999 -38.72265625 150.86328125 C-39.67398438 150.12078125 -39.67398438 150.12078125 -40.64453125 149.36328125 C-46.24596266 144.4062623 -49.71694251 137.62385319 -52.72265625 130.86328125 C-52.72265625 129.87328125 -52.72265625 128.88328125 -52.72265625 127.86328125 C-50.78125 126.5390625 -50.78125 126.5390625 -48.16015625 125.17578125 C-34.35444023 117.17584454 -27.40302279 100.87166645 -23.26953125 86.00585938 C-19.81201066 72.45978762 -17.54924334 58.9124994 -17.47265625 44.92578125 C-17.45203125 43.98798828 -17.43140625 43.05019531 -17.41015625 42.08398438 C-17.36194672 33.41229435 -18.86534858 25.93176199 -24.91015625 19.43359375 C-31.49650559 13.72731695 -38.3188787 11.5267156 -46.88671875 11.65234375 C-71.18613108 13.45973806 -90.09152724 32.25877896 -105.29101562 49.65869141 C-108.29314215 53.26103152 -111.03667826 57.0181897 -113.72265625 60.86328125 C-114.12500488 61.43723633 -114.52735352 62.01119141 -114.94189453 62.60253906 C-128.75199787 82.43270692 -140.32043343 103.62066562 -149.72265625 125.86328125 C-149.97278473 126.4499054 -150.22291321 127.03652954 -150.48062134 127.64093018 C-155.07280463 138.4401896 -159.11738377 149.34282061 -162.78515625 160.48828125 C-163.04444916 161.27307861 -163.30374207 162.05787598 -163.57089233 162.86645508 C-174.01886612 194.57330646 -181.29228201 227.24407947 -184.39038086 260.52026367 C-184.64181061 263.04989448 -184.9228759 265.56796903 -185.22875977 268.09106445 C-186.54193215 279.16685276 -187.06588052 290.10039121 -187.03833008 301.25219727 C-187.03515325 303.92830627 -187.05882459 306.60332164 -187.08398438 309.27929688 C-187.13832968 323.87126282 -185.88537148 338.380605 -180.97265625 352.23828125 C-180.71589111 352.97884766 -180.45912598 353.71941406 -180.19458008 354.48242188 C-174.73482375 369.60225234 -165.36440774 382.60020189 -150.72265625 389.86328125 C-144.61007083 392.40767349 -139.13441842 393.360794 -132.53515625 393.23828125 C-131.70419434 393.22450439 -130.87323242 393.21072754 -130.01708984 393.1965332 C-102.41386845 392.41691648 -80.69414105 375.81202483 -62.19921875 356.625 C-54.28092211 348.19216478 -47.87273581 338.85348999 -41.92578125 328.95703125 C-39.42186723 325.44089667 -37.23599702 323.35363347 -33.72265625 320.86328125 C-30.03515625 320.73828125 -30.03515625 320.73828125 -26.72265625 321.86328125 C-24.02522337 324.64772809 -23.72185265 326.8677376 -23.03515625 330.67578125 C-23.92737342 355.09008756 -53.99217507 385.01933132 -70.66015625 400.61328125 C-93.03362146 420.94219295 -117.65824962 429.92676817 -147.66210938 429.03369141 C-170.80503794 427.74510141 -190.91730853 413.29032437 -206.08740234 396.74853516 C-236.84125759 361.2929857 -241.23989723 311.59757997 -238.49560547 266.81591797 C-233.25193763 196.61365598 -208.56325964 119.84987428 -166.72265625 62.86328125 C-166.30661133 62.29561035 -165.89056641 61.72793945 -165.46191406 61.14306641 C-153.32670229 44.72059305 -139.95116144 29.36158842 -123.72265625 16.86328125 C-123.20751465 16.46641113 -122.69237305 16.06954102 -122.16162109 15.66064453 C-108.10625901 4.94592793 -92.71312644 -4.03917441 -75.72265625 -9.13671875 C-75.03220215 -9.34554687 -74.34174805 -9.554375 -73.63037109 -9.76953125 C-48.81333975 -16.90689817 -20.85880761 -16.36982463 0 0 Z " fill="#FEFEFE" transform="translate(405.72265625,92.13671875)"/>
</svg>
