<?xml version="1.0" encoding="UTF-8"?>
<svg version="1.1" xmlns="http://www.w3.org/2000/svg" width="1511" height="1510">
<path d="M0 0 C10.89659806 8.9414974 20.61388794 19.4757996 30.55501437 29.43894875 C33.03560902 31.92391305 35.51914602 34.40593391 38.00230408 36.88833618 C42.29101554 41.17652649 46.57791069 45.46652545 50.86353302 49.75780296 C57.05961911 55.96205984 63.2585062 62.16351205 69.45805284 68.36431078 C79.51940597 78.42784571 89.57852979 88.49360586 99.63623047 98.56079102 C109.39904736 108.33280465 119.16292719 118.10375422 128.92822266 127.87329102 C129.53143008 128.47676116 130.1346375 129.0802313 130.75612393 129.70198842 C133.78262552 132.72979516 136.80914785 135.75758117 139.83568048 138.78535688 C164.89366965 163.8536915 189.94803195 188.92564825 215 214 C218.1561523 212.60265899 220.28070938 210.96560358 222.70987797 208.52504444 C223.43560475 207.80083296 224.16133154 207.07662147 224.90905005 206.33046418 C225.69921261 205.53174746 226.48937517 204.73303074 227.30348206 203.91011047 C228.14851742 203.06396169 228.99355279 202.21781291 229.86419529 201.34602326 C232.20909253 198.99609951 234.54940986 196.64177548 236.88795483 194.28554022 C239.41136227 191.74527848 241.94060168 189.21083588 244.46922302 186.67576599 C248.85164082 182.28074613 253.23059838 177.88230318 257.6074543 173.48174477 C263.94561663 167.10962264 270.29120313 160.74493391 276.63901531 154.38242628 C286.95067868 144.04686096 297.25933724 133.70830532 307.56469727 123.36645508 C308.49004794 122.43783403 308.49004794 122.43783403 309.43409257 121.49045297 C318.1783877 112.71497211 326.91967598 103.93650225 335.6597411 95.1568087 C336.27451921 94.53924396 336.88929732 93.92167921 337.52270508 93.28540039 C338.13672983 92.66858858 338.75075458 92.05177677 339.38338614 91.41627369 C349.63791148 81.11560738 359.90020797 70.82272369 370.16885322 60.53613347 C376.49781722 54.195488 382.8202052 47.84842448 389.13418453 41.49285658 C393.46699107 37.13253931 397.80707734 32.77955667 402.15285421 28.43216667 C404.65656796 25.92705108 407.15694315 23.41883222 409.64848709 20.90160751 C412.35729157 18.16503236 415.08171137 15.44433859 417.80763245 12.72480774 C418.58217996 11.93724462 419.35672747 11.14968151 420.15474612 10.33825284 C433.05524426 -2.44553449 449.06208474 -10.07676032 467.25 -10.3125 C484.61656937 -10.20282437 500.373447 -4.11379958 513 8 C525.97055993 21.47672812 531.53868826 37.54117442 531.34936523 55.99926758 C530.68169718 78.7112977 518.51830869 92.66003129 503.13511658 107.98513794 C502.29029852 108.83081042 501.44548046 109.6764829 500.57506186 110.54778183 C498.25987251 112.86432076 495.94248461 115.17863231 493.62409651 117.49196911 C491.11320035 119.99850909 488.60523371 122.50797747 486.09689331 125.01707458 C481.76064969 129.35384019 477.42259255 133.68878468 473.0832653 138.02246475 C466.80948399 144.28808675 460.53849643 150.55649888 454.26816697 156.8255751 C444.09260082 166.99895766 433.91480787 177.17010939 423.7355957 187.33984375 C413.8529073 197.21334004 403.9712795 207.08789583 394.09106445 216.96386719 C393.48109487 217.57357405 392.87112529 218.1832809 392.24267178 218.81146373 C389.18235564 221.87047474 386.12206022 224.92950648 383.06177509 227.98854852 C357.71106041 253.3289122 332.35672383 278.66564941 307 304 C308.40141971 307.17000592 310.05077649 309.29566076 312.50339699 311.73273277 C313.23395856 312.46357625 313.96452014 313.19441973 314.71721995 313.94740999 C315.9259447 315.14125714 315.9259447 315.14125714 317.15908813 316.35922241 C318.01269845 317.21030819 318.86630877 318.06139396 319.74578607 318.93827021 C322.11659282 321.30017327 324.49179576 323.65749539 326.86888671 326.01306367 C329.4316895 328.55490096 331.98865221 331.10260007 334.54620361 333.64971924 C338.98064814 338.06473439 343.41840168 342.47640049 347.85808182 346.88615036 C354.88294767 353.86424513 361.89742251 360.85273386 368.9102478 367.84292603 C371.31115355 370.23582843 373.71212623 372.62866368 376.11311913 375.02147865 C376.71320394 375.61952501 377.31328876 376.21757137 377.93155796 376.83374035 C384.76367312 383.6423664 391.59791497 390.44885593 398.43310547 397.25439453 C399.05790508 397.87648928 399.6827047 398.49858403 400.32643764 399.13953014 C410.43522934 409.20403037 420.55170911 419.26077523 430.67018433 429.31553857 C441.068383 439.64882529 451.45493194 449.99372675 461.83171213 460.34852183 C468.22595912 466.72836285 474.6294688 473.09860897 481.04541783 479.45662601 C485.44939671 483.82243599 489.84222421 488.19926591 494.22667153 492.58468966 C496.75170686 495.10959968 499.28124565 497.62948628 501.82443619 500.13611984 C518.63792464 516.71866522 531.17847216 531.77945553 531.5 556.5 C531.30652981 574.03719291 524.94621381 589.15460881 513 602 C500.19793065 614.3113977 483.83568601 620.57312891 466.15942383 620.41992188 C437.07859833 619.33525749 419.74984456 598.90870564 400.52952862 579.64559424 C398.06120421 577.17289981 395.58993707 574.7031492 393.11904907 572.23301697 C388.85161853 567.96610756 384.5860042 563.69738966 380.3216629 559.42739296 C374.15634606 553.25390501 367.98822792 547.08322204 361.81945035 540.91319241 C351.8080115 530.89957181 341.79880192 520.88372602 331.79101562 510.86645508 C322.0767014 501.14294398 312.36132414 491.42049705 302.64453125 481.69946289 C302.04431083 481.09897974 301.4440904 480.49849659 300.82568148 479.87981699 C297.81416396 476.86699431 294.8026257 473.85419238 291.79107714 470.84140074 C266.85750201 445.89748032 241.92755378 420.94993777 217 396 C213.83760492 397.39916749 211.712711 399.04168337 209.28009129 401.48777962 C208.18812611 402.57839689 208.18812611 402.57839689 207.07410103 403.69104683 C206.28141176 404.49297239 205.48872249 405.29489794 204.67201233 406.12112427 C203.82430454 406.97065103 202.97659675 407.8201778 202.10320085 408.6954478 C199.75076597 411.05484775 197.4029116 413.41864593 195.05682027 415.78434372 C192.52521092 418.33486311 189.98775455 420.87955279 187.45089722 423.42485046 C183.05381886 427.83794465 178.66014525 432.25440493 174.2684803 436.67288589 C167.31960767 443.66369449 160.36092948 450.64469676 153.40074158 457.62423706 C151.01820818 460.01365075 148.63575081 462.40314024 146.25332546 464.79266167 C145.65788209 465.38987669 145.06243873 465.98709171 144.44895162 466.60240415 C137.670116 473.40173776 130.8936119 480.20339319 124.11791992 487.00585938 C123.49855348 487.62766838 122.87918703 488.24947738 122.2410519 488.89012907 C112.21931531 498.95181424 102.20355128 509.01942948 92.18911404 519.08837892 C81.89803398 529.43499231 71.59725482 539.7718848 61.28835672 550.10074508 C54.93625919 556.46588364 48.59224118 562.83886427 42.25855296 569.22232239 C37.91018049 573.60354374 33.55264762 577.97551552 29.18797875 582.34050174 C26.67461967 584.8546234 24.16542861 587.37254882 21.66729927 589.9018116 C5.06002225 606.70696152 -10.0246148 620.07809305 -34.9375 620.3125 C-52.4411513 620.34673511 -67.86996319 614.0413141 -80.3046875 601.796875 C-92.33762563 589.31052181 -99.00665042 574.30482383 -99.4375 556.875 C-99.05097772 546.52088802 -96.93126466 537.21967604 -92.5 527.875 C-92.22285156 527.26672363 -91.94570313 526.65844727 -91.66015625 526.03173828 C-84.53379358 512.01187646 -69.61638613 500.47594749 -58.64559424 489.52952862 C-56.17289981 487.06120421 -53.7031492 484.58993707 -51.23301697 482.11904907 C-46.96610756 477.85161853 -42.69738966 473.5860042 -38.42739296 469.3216629 C-32.25390501 463.15634606 -26.08322204 456.98822792 -19.91319241 450.81945035 C-9.89957181 440.8080115 0.11627398 430.79880192 10.13354492 420.79101562 C19.85705602 411.0767014 29.57950295 401.36132414 39.30053711 391.64453125 C39.90102026 391.04431083 40.50150341 390.4440904 41.12018301 389.82568148 C44.13300569 386.81416396 47.14580762 383.8026257 50.15859926 380.79107714 C75.10251968 355.85750201 100.05006223 330.92755378 125 306 C123.60265899 302.8438477 121.96560358 300.71929062 119.52504444 298.29012203 C118.80083296 297.56439525 118.07662147 296.83866846 117.33046418 296.09094995 C116.53174746 295.30078739 115.73303074 294.51062483 114.91011047 293.69651794 C114.06396169 292.85148258 113.21781291 292.00644721 112.34602326 291.13580471 C109.99609951 288.79090747 107.64177548 286.45059014 105.28554022 284.11204517 C102.74527848 281.58863773 100.21083588 279.05939832 97.67576599 276.53077698 C93.28074613 272.14835918 88.88230318 267.76940162 84.48174477 263.3925457 C78.10962264 257.05438337 71.74493391 250.70879687 65.38242628 244.36098469 C55.04686096 234.04932132 44.70830532 223.74066276 34.36645508 213.43530273 C33.74737438 212.81840228 33.12829369 212.20150183 32.49045297 211.56590743 C23.71497211 202.8216123 14.93650225 194.08032402 6.1568087 185.3402589 C5.53924396 184.72548079 4.92167921 184.11070268 4.28540039 183.47729492 C3.66858858 182.86327017 3.05177677 182.24924542 2.41627369 181.61661386 C-7.88439262 171.36208852 -18.17727631 161.09979203 -28.46386653 150.83114678 C-34.804512 144.50218278 -41.15157552 138.1797948 -47.50714342 131.86581547 C-51.86746069 127.53300893 -56.22044333 123.19292266 -60.56783333 118.84714579 C-63.07294892 116.34343204 -65.58116778 113.84305685 -68.09839249 111.35151291 C-70.83496764 108.64270843 -73.55566141 105.91828863 -76.27519226 103.19236755 C-77.06275538 102.41782004 -77.85031849 101.64327253 -78.66174716 100.84525388 C-91.71466321 87.67316999 -98.7260833 71.79615968 -99.375 53.3125 C-99.03732213 35.15734874 -91.91088365 19.75288332 -79 7 C-78.38640625 6.36449219 -77.7728125 5.72898437 -77.140625 5.07421875 C-56.60434118 -14.71608894 -23.22023503 -14.630136 0 0 Z " fill="#FFFFFF" transform="translate(539,450)"/>
</svg>
