<?xml version="1.0" encoding="UTF-8"?>
<svg version="1.1" xmlns="http://www.w3.org/2000/svg" width="800" height="800">
<path d="M0 0 C1.9404632 -0.00346072 3.88092442 -0.00822806 5.82138157 -0.01418173 C11.12989567 -0.02666437 16.43824724 -0.02053378 21.7467618 -0.01122308 C27.48099633 -0.00442172 33.21520335 -0.01491921 38.94943237 -0.02316284 C50.17343091 -0.03649075 61.3973692 -0.03362661 72.62137008 -0.02492492 C81.74474694 -0.01814509 90.86810694 -0.01723295 99.9914856 -0.02049637 C101.94047944 -0.02118592 101.94047944 -0.02118592 103.9288469 -0.0218894 C106.56854972 -0.02284859 109.20825253 -0.02382123 111.84795535 -0.02480717 C135.88545325 -0.03311462 159.92291952 -0.02450484 183.96041228 -0.00877938 C205.8879324 0.00545666 227.81540025 0.00418275 249.74291992 -0.01016235 C274.39801207 -0.02623806 299.05307413 -0.03253436 323.70817089 -0.02332556 C326.33807055 -0.02236993 328.96797021 -0.02142682 331.59786987 -0.02049637 C332.8917733 -0.02003354 334.18567673 -0.01957072 335.51878935 -0.01909386 C344.62940553 -0.01650544 353.74000315 -0.02087179 362.85061646 -0.02793503 C373.95597508 -0.03635562 385.0612701 -0.03405805 396.16662145 -0.0180928 C401.83087237 -0.01021769 407.49501732 -0.00710562 413.15926743 -0.01704025 C418.34807648 -0.02600325 423.53668167 -0.02102774 428.72547233 -0.0051076 C430.59879858 -0.00176661 432.47214218 -0.00343844 434.3454572 -0.01073496 C461.1337836 -0.1070413 461.1337836 -0.1070413 470.79467773 9.38095093 C476.41941365 15.10818772 478.93482681 21.42008391 479.79467773 29.38095093 C479.62371273 39.13735357 476.85176173 46.2102246 470.05639648 53.15829468 C462.6383116 59.88556012 455.58963525 61.53465222 445.77629662 61.515172 C444.56708731 61.51870035 444.56708731 61.51870035 443.33344954 61.52229998 C440.62116111 61.52897854 437.90892071 61.5285321 435.19662476 61.52812195 C433.23674338 61.53142128 431.27686269 61.53514699 429.31698287 61.53926343 C423.92236621 61.54928356 418.52776068 61.55300024 413.13313603 61.55565274 C407.3183668 61.5595557 401.50360638 61.56913398 395.68884277 61.5778656 C381.64255162 61.59762929 367.59625975 61.60769569 353.54995817 61.61659339 C346.93663164 61.62097607 340.32330591 61.6263429 333.70998001 61.63158226 C311.72861333 61.64859375 289.74724713 61.66311338 267.76587486 61.670331 C266.34452116 61.67080576 264.92316745 61.67128165 263.50181375 61.67175866 C262.79695682 61.67199504 262.0920999 61.67223142 261.36588368 61.67247495 C257.79478508 61.67367614 254.22368648 61.6748916 250.65258789 61.67611694 C249.58954938 61.67647717 249.58954938 61.67647717 248.50503534 61.67684467 C225.52845215 61.68473729 202.55192059 61.70816894 179.57535994 61.74067289 C155.27890015 61.77498124 130.98247057 61.79468305 106.68598616 61.79797524 C93.44333951 61.80004775 80.20076557 61.80890408 66.95814133 61.83443642 C55.68167103 61.85612766 44.40529507 61.86420152 33.12880628 61.85446963 C27.37557802 61.84992054 21.62254445 61.8518469 15.8693428 61.87123108 C10.60008462 61.8888314 5.33116362 61.88789023 0.061902 61.87233379 C-1.84190426 61.86995299 -3.74573367 61.87430565 -5.6495045 61.88616244 C-18.39949002 61.96063636 -29.78583162 61.70182914 -39.48657227 52.27938843 C-45.6894465 45.42803188 -47.94703884 38.68991597 -48.20532227 29.38095093 C-47.14268982 19.41877176 -43.12784341 12.4861976 -35.58032227 6.06845093 C-25.09530664 -1.00385163 -12.09970948 -0.04712812 0 0 Z " fill="#F7F7F7" transform="translate(184.205322265625,535.6190490722656)"/>
<path d="M0 0 C0.80613953 -0.00235223 1.61227907 -0.00470446 2.44284707 -0.00712797 C5.1551355 -0.01380654 7.8673759 -0.01336009 10.57967186 -0.01294994 C12.53955323 -0.01624927 14.49943392 -0.01997498 16.45931375 -0.02409142 C21.85393041 -0.03411156 27.24853594 -0.03782824 32.64316058 -0.04048073 C38.45792981 -0.04438369 44.27269023 -0.05396198 50.08745384 -0.0626936 C64.13374499 -0.08245729 78.18003687 -0.09252368 92.22633845 -0.10142139 C98.83966498 -0.10580407 105.45299071 -0.1111709 112.0663166 -0.11641026 C134.04768329 -0.13342174 156.02904949 -0.14794137 178.01042175 -0.155159 C179.43177546 -0.15563375 180.85312916 -0.15610964 182.27448287 -0.15658666 C182.97933979 -0.15682303 183.68419671 -0.15705941 184.41041294 -0.15730295 C187.98151154 -0.15850414 191.55261013 -0.15971959 195.12370872 -0.16094494 C196.18674724 -0.16130516 196.18674724 -0.16130516 197.27126127 -0.16167267 C220.24784446 -0.16956528 243.22437603 -0.19299694 266.20093668 -0.22550088 C290.49739646 -0.25980924 314.79382605 -0.27951104 339.09031045 -0.28280324 C352.3329571 -0.28487574 365.57553104 -0.29373207 378.81815529 -0.31926441 C390.09462558 -0.34095565 401.37100155 -0.34902951 412.64749034 -0.33929763 C418.4007186 -0.33474853 424.15375217 -0.33667489 429.90695381 -0.35605907 C435.176212 -0.37365939 440.445133 -0.37271823 445.71439461 -0.35716178 C447.61820087 -0.35478099 449.52203029 -0.35913365 451.42580111 -0.37099043 C464.17578664 -0.44546436 475.56212823 -0.18665713 485.26286888 9.23578358 C491.46574312 16.08714012 493.72333546 22.82525603 493.98161888 32.13422108 C492.91898644 42.09640025 488.90414003 49.02897441 481.35661888 55.44672108 C470.87160326 62.51902363 457.8760061 61.56230013 445.77629662 61.515172 C443.83583342 61.51863273 441.89537219 61.52340007 439.95491505 61.52935374 C434.64640094 61.54183637 429.33804938 61.53570578 424.02953482 61.52639508 C418.29530029 61.51959373 412.56109327 61.53009121 406.82686424 61.53833485 C395.60286571 61.55166275 384.37892742 61.54879862 373.15492654 61.54009692 C364.03154968 61.53331709 354.90818968 61.53240496 345.78481102 61.53566837 C343.83581718 61.53635792 343.83581718 61.53635792 341.84744972 61.5370614 C339.2077469 61.53802059 336.56804408 61.53899323 333.92834127 61.53997917 C309.89084336 61.54828663 285.8533771 61.53967684 261.81588434 61.52395138 C239.88836421 61.50971534 217.96089636 61.51098926 196.03337669 61.52533436 C171.37828454 61.54141007 146.72322248 61.54770636 122.06812572 61.53849757 C119.43822607 61.53754194 116.80832641 61.53659882 114.17842674 61.53566837 C112.88452331 61.53520555 111.59061989 61.53474272 110.25750726 61.53426587 C101.14689108 61.53167745 92.03629347 61.5360438 82.92568016 61.54310703 C71.82032154 61.55152763 60.71502652 61.54923006 49.60967517 61.5332648 C43.94542424 61.52538969 38.28127929 61.52227763 32.61702919 61.53221226 C27.42822013 61.54117525 22.23961494 61.53619974 17.05082428 61.5202796 C15.17749804 61.51693861 13.30415444 61.51861044 11.43083942 61.52590697 C-15.35748699 61.6222133 -15.35748699 61.6222133 -25.01838112 52.13422108 C-30.64311703 46.40698428 -33.15853019 40.0950881 -34.01838112 32.13422108 C-33.84741612 22.37781844 -31.07546511 15.30494741 -24.28009987 8.35687733 C-16.86201499 1.62961188 -9.81333864 -0.01948022 0 0 Z " fill="#F6F6F6" transform="translate(170.0183811187744,202.86577892303467)"/>
<path d="M0 0 C0.81665416 -0.00465992 1.63330832 -0.00931984 2.47470957 -0.01412097 C5.20484284 -0.02604967 7.9344765 -0.01668377 10.66461372 -0.00736332 C12.64429849 -0.01153716 14.62398086 -0.01701496 16.6036588 -0.02368313 C22.03908097 -0.0381498 27.47435166 -0.03388914 32.90978217 -0.02651632 C38.77356949 -0.02178999 44.63732378 -0.03428978 50.50110054 -0.04453373 C61.98699639 -0.06173761 73.47283757 -0.06255842 84.95874296 -0.05732083 C94.29390302 -0.05328081 103.62904841 -0.05465715 112.9642086 -0.06006908 C114.30582703 -0.06082595 115.64744546 -0.06158193 116.9890639 -0.06233703 C119.01080402 -0.06348223 121.03254413 -0.06463211 123.05428424 -0.06579627 C141.84913338 -0.07650035 160.64397654 -0.08122749 179.43882751 -0.07332611 C180.14722013 -0.07302894 180.85561274 -0.07273176 181.58547179 -0.07242559 C187.33799232 -0.06997669 193.09051277 -0.06736508 198.84303322 -0.06474145 C221.2800993 -0.05463966 243.71709055 -0.0629935 266.15414619 -0.086236 C291.3680651 -0.11231284 316.58193896 -0.12515537 341.79587185 -0.11804825 C344.48477625 -0.1173322 347.17368065 -0.11665781 349.86258507 -0.1160078 C350.85568406 -0.11575309 350.85568406 -0.11575309 351.86884567 -0.11549323 C361.85938331 -0.11319104 371.84986487 -0.12120592 381.84039116 -0.13429928 C393.20356444 -0.14900678 404.56663299 -0.14967564 415.92980419 -0.13222837 C421.72747712 -0.12370407 427.52496284 -0.12160389 433.32262611 -0.13687992 C438.63119953 -0.15069412 443.93942476 -0.14600568 449.24797787 -0.12664068 C451.16714923 -0.12287035 453.08634827 -0.1258323 455.00549506 -0.13625234 C466.81070392 -0.1957849 477.78477363 -0.15146856 486.9456501 8.42328548 C493.02620236 15.85342373 496.106127 24.29693222 495.35580635 33.80609798 C494.12028496 42.16862698 490.32922017 49.51055676 483.6722126 54.81781673 C477.32860133 59.41762144 470.72801681 60.82955829 463.0944252 60.76063347 C462.27777104 60.76529339 461.46111688 60.76995331 460.61971563 60.77475443 C457.88958236 60.78668314 455.1599487 60.77731724 452.42981148 60.76799679 C450.45012671 60.77217063 448.47044434 60.77764842 446.49076641 60.7843166 C441.05534423 60.79878326 435.62007354 60.79452261 430.18464303 60.78714979 C424.32085572 60.78242346 418.45710142 60.79492325 412.59332466 60.8051672 C401.10742881 60.82237108 389.62158763 60.82319189 378.13568224 60.81795429 C368.80052218 60.81391428 359.46537679 60.81529062 350.1302166 60.82070255 C348.78859817 60.82145942 347.44697974 60.8222154 346.10536131 60.8229705 C344.08362118 60.8241157 342.06188107 60.82526558 340.04014096 60.82642974 C321.24529182 60.83713382 302.45044866 60.84186096 283.65559769 60.83395958 C282.94720507 60.83366241 282.23881246 60.83336523 281.50895341 60.83305905 C275.75643288 60.83061016 270.00391243 60.82799855 264.25139198 60.82537492 C241.8143259 60.81527313 219.37733465 60.82362697 196.94027901 60.84686947 C171.7263601 60.87294631 146.51248624 60.88578884 121.29855335 60.87868172 C118.60964895 60.87796567 115.92074455 60.87729128 113.23184013 60.87664127 C112.23874114 60.87638656 112.23874114 60.87638656 111.22557953 60.8761267 C101.23504189 60.87382451 91.24456033 60.88183939 81.25403404 60.89493275 C69.89086076 60.90964025 58.52779221 60.91030911 47.16462101 60.89286184 C41.36694808 60.88433754 35.56946236 60.88223736 29.77179909 60.89751339 C24.46322567 60.91132759 19.15500044 60.90663915 13.84644733 60.88727415 C11.92727597 60.88350382 10.00807693 60.88646577 8.08893014 60.8968858 C-3.71627872 60.95641836 -14.69034843 60.91210202 -23.8512249 52.33734798 C-29.93177716 44.90720974 -33.0117018 36.46370124 -32.26138115 26.95453548 C-31.02585976 18.59200649 -27.23479497 11.2500767 -20.5777874 5.94281673 C-14.23417613 1.34301203 -7.6335916 -0.06892482 0 0 Z " fill="#F7F7F7" transform="translate(168.452787399292,369.61968326568604)"/>
</svg>
