<?xml version="1.0" encoding="UTF-8"?>
<svg version="1.1" xmlns="http://www.w3.org/2000/svg" width="315" height="315">
<path d="M0 0 C0.96275345 -0.0071553 1.9255069 -0.01431061 2.91743469 -0.02168274 C3.96731567 -0.02437164 5.01719666 -0.02706055 6.09889221 -0.02983093 C7.2100087 -0.03640213 8.32112518 -0.04297333 9.46591187 -0.04974365 C13.14769053 -0.06947183 16.82942831 -0.08114089 20.51124573 -0.09111023 C21.77112871 -0.09518576 23.0310117 -0.09926128 24.32907295 -0.10346031 C30.31504338 -0.12217267 36.30098918 -0.13673524 42.28698105 -0.14507228 C49.16764856 -0.15481625 56.04799193 -0.18106218 62.92854542 -0.22157317 C68.90967713 -0.25556317 74.89065365 -0.26723318 80.87188911 -0.27127647 C83.40384678 -0.2761287 85.93580133 -0.2877034 88.46769524 -0.30631447 C107.76083884 -0.43926811 122.1310733 0.14862156 137.01515198 13.70967102 C137.73702698 14.51404602 138.45890198 15.31842102 139.20265198 16.14717102 C140.02765198 17.03404602 140.85265198 17.92092102 141.70265198 18.83467102 C149.20322155 28.01517889 151.50116562 38.19706336 151.50904846 49.72554016 C151.51737198 50.76721344 151.5256955 51.80888672 151.53427124 52.88212585 C151.5583046 56.31556475 151.56713683 59.74881324 151.57374573 63.18232727 C151.58271952 65.58259129 151.5918415 67.98285476 151.60110474 70.38311768 C151.61758093 75.41410172 151.62529195 80.44501935 151.62818909 85.47602844 C151.63356078 91.89245981 151.6711976 98.30825805 151.71693325 104.72451115 C151.74682351 109.68423687 151.7539153 114.64381261 151.75491524 119.60362053 C151.75909642 121.96729356 151.77144517 124.33096792 151.79243279 126.69455147 C151.94715287 145.63132701 150.36155094 159.63693732 137.20265198 174.14717102 C126.93831182 183.87233378 114.66360227 187.44482243 100.88990784 187.4535675 C99.21035507 187.46605278 99.21035507 187.46605278 97.49687195 187.47879028 C93.80371087 187.50283761 90.11072675 187.51165747 86.41749573 187.51826477 C83.83786976 187.52723726 81.25824432 187.53635922 78.67861938 187.54562378 C73.27100512 187.5621036 67.86346151 187.56984434 62.45582581 187.57270813 C56.2385748 187.57633358 50.02182039 187.60616542 43.80472082 187.64811271 C37.79099017 187.68724096 31.77753067 187.6983057 25.76365852 187.69943428 C23.221358 187.70361871 20.67905638 187.71598079 18.13683891 187.73695183 C-0.38141736 187.87751358 -15.34764822 187.15647354 -29.79734802 174.14717102 C-45.04688999 158.66261899 -45.11079186 139.43241511 -45.06297302 119.05342102 C-45.06432322 117.01423598 -45.06626669 114.97505126 -45.06877136 112.93586731 C-45.07170594 108.67961029 -45.06747889 104.42343769 -45.05809021 100.16719055 C-45.04669676 94.74075345 -45.05326519 89.31451427 -45.06523514 83.88808441 C-45.07249891 79.6824955 -45.07014516 75.47695269 -45.06497955 71.2713623 C-45.06365553 69.27169775 -45.06524651 67.27202887 -45.06993866 65.27236938 C-45.10717221 44.94992229 -43.88854791 27.38255434 -28.79734802 12.14717102 C-20.76680879 5.26750525 -10.74539486 0.05500405 0 0 Z M-19.79734802 29.14717102 C-23.55880716 34.68643423 -25.90571386 39.72546406 -25.94451904 46.47117615 C-25.95167435 47.32888107 -25.95882965 48.186586 -25.96620178 49.07028198 C-25.96889069 50.0033165 -25.97157959 50.93635101 -25.97434998 51.8976593 C-25.98092117 52.88679825 -25.98749237 53.87593719 -25.9942627 54.89505005 C-26.01397529 58.16919534 -26.02565496 61.44329476 -26.03562927 64.71748352 C-26.0397048 65.83768764 -26.04378033 66.95789177 -26.04797935 68.11204147 C-26.06883326 74.0433458 -26.0831369 79.97462704 -26.09251404 85.90596008 C-26.10356575 92.01897436 -26.13795372 98.13162337 -26.17768574 104.24450874 C-26.20388863 108.95614783 -26.21220925 113.66770044 -26.21579552 118.37940598 C-26.22065339 120.63194617 -26.23224444 122.88448272 -26.25083351 125.13695145 C-26.2752983 128.29836317 -26.27424603 131.45883726 -26.26731873 134.62031555 C-26.28012878 135.54120468 -26.29293884 136.46209381 -26.30613708 137.41088867 C-26.23604688 146.23925609 -23.59100562 154.09474471 -17.50047302 160.61592102 C-9.53396927 167.77846568 -1.53514186 169.44716354 8.91456604 169.43769836 C10.51575539 169.4477742 10.51575539 169.4477742 12.14929199 169.45805359 C15.67233457 169.47702485 19.19518651 169.48095755 22.71827698 169.48310852 C25.17439349 169.48953761 27.63050924 169.49626605 30.08662415 169.50328064 C35.23453038 169.51525164 40.38236952 169.51896169 45.5302887 169.51777649 C52.1118383 169.51757345 58.69295541 169.54486195 65.27440262 169.57932091 C70.34805763 169.60161055 75.42160896 169.60561337 80.49530792 169.60455704 C82.92088561 169.6069104 85.34646626 169.61571887 87.77199554 169.63122177 C91.1726873 169.65092033 94.5724516 169.64502744 97.97315979 169.63301086 C98.96571274 169.64424988 99.95826569 169.65548889 100.980896 169.66706848 C109.90655754 169.58733106 117.95706234 167.16262396 124.60108948 160.99092102 C129.74765311 155.06609655 133.30431014 148.73490896 133.349823 140.82316589 C133.3569783 139.96546097 133.36413361 139.10775604 133.37150574 138.22406006 C133.37419464 137.29102554 133.37688354 136.35799103 133.37965393 135.39668274 C133.38951073 133.91297432 133.38951073 133.91297432 133.39956665 132.39929199 C133.41927925 129.1251467 133.43095891 125.85104728 133.44093323 122.57685852 C133.44500875 121.4566544 133.44908428 120.33645027 133.45328331 119.18230057 C133.47413721 113.25099625 133.48844085 107.319715 133.49781799 101.38838196 C133.5088697 95.27536768 133.54325768 89.16271867 133.58298969 83.0498333 C133.60919259 78.33819421 133.61751321 73.6266416 133.62109947 68.91493607 C133.62595735 66.66239587 133.63754839 64.40985933 133.65613747 62.15739059 C133.68060225 58.99597887 133.67954998 55.83550478 133.67262268 52.67402649 C133.68543274 51.75313736 133.6982428 50.83224823 133.71144104 49.88345337 C133.64135083 41.05508595 130.99630957 33.19959734 124.90577698 26.67842102 C116.93927323 19.51587636 108.94044582 17.8471785 98.49073792 17.85664368 C96.88954857 17.84656784 96.88954857 17.84656784 95.25601196 17.83628845 C91.73296938 17.81731719 88.21011744 17.8133845 84.68702698 17.81123352 C82.23091047 17.80480443 79.77479472 17.79807599 77.31867981 17.7910614 C72.17077357 17.7790904 67.02293443 17.77538035 61.87501526 17.77656555 C55.29346565 17.7767686 48.71234854 17.7494801 42.13090134 17.71502113 C37.05724632 17.69273149 31.98369499 17.68872867 26.90999603 17.689785 C24.48441835 17.68743164 22.05883769 17.67862317 19.63330841 17.66312027 C16.23261666 17.64342171 12.83285235 17.6493146 9.43214417 17.66133118 C7.94331474 17.64447266 7.94331474 17.64447266 6.42440796 17.62727356 C-4.05867823 17.72092424 -12.7981284 21.18361448 -19.79734802 29.14717102 Z " fill="#F5F5F5" transform="translate(103.79734802246094,63.85282897949219)"/>
<path d="M0 0 C9.80639843 7.06200528 16.70354514 15.84562783 19.984375 27.671875 C21.75623516 41.59363341 20.45616906 54.54680034 11.984375 66.1640625 C4.82716098 75.09385756 -4.21019754 81.85260965 -15.6875 84.25 C-31.95453198 85.67280108 -43.93094447 82.85524442 -56.77734375 72.578125 C-63.89635107 66.18331613 -70.01892887 55.8938429 -70.86450195 46.22631836 C-71.34290197 29.54712086 -68.60046786 17.83046208 -57.1875 5.125 C-41.79974602 -9.7557931 -17.72325599 -10.97582351 0 0 Z M-47.8125 21.75 C-53.02113576 28.90215657 -53.76750862 36.64885024 -52.6875 45.25 C-50.02365521 53.71758269 -45.48394913 59.90997665 -37.6875 64.25 C-30.67636467 67.04497963 -23.03812733 67.67277272 -15.796875 65.3046875 C-7.74720223 61.47265765 -2.89853535 55.99182653 1.3125 48.25 C3.87479725 40.56310824 2.78050745 32.60798506 -0.5703125 25.36328125 C-4.39397181 18.1304152 -10.97468496 13.82093835 -18.6875 11.25 C-30.30423643 9.92953643 -40.20454479 12.46012081 -47.8125 21.75 Z " fill="#F4F4F4" transform="translate(182.6875,118.75)"/>
<path d="M0 0 C2.76290053 3.93504014 3.47173587 7.157625 3.0625 11.9375 C1.81916569 15.92844962 -0.25573307 18.43013856 -3.625 20.9375 C-8.01121762 22.26164117 -11.54391102 22.26692545 -15.9375 20.9375 C-19.58933503 18.14034976 -21.86524079 15.44098867 -22.9375 10.9375 C-22.85744803 6.53464152 -22.18953553 4.3191538 -19.75 0.625 C-13.35671936 -5.48413483 -6.90898417 -4.85098889 0 0 Z " fill="#F4F4F4" transform="translate(216.9375,98.0625)"/>
</svg>
