<?xml version="1.0" encoding="UTF-8"?>
<svg version="1.1" xmlns="http://www.w3.org/2000/svg" width="315" height="315">
<path d="M0 0 C0.77135284 0.00215515 1.54270569 0.0043103 2.33743286 0.00653076 C13.70465251 0.05747249 24.70947385 0.40396036 35.75 3.3125 C36.54325684 3.51649414 37.33651367 3.72048828 38.15380859 3.93066406 C67.18879803 11.58346964 91.1769569 25.5964682 112.75 46.3125 C113.3061499 46.84528564 113.8622998 47.37807129 114.43530273 47.92700195 C135.1406101 68.13586127 147.55359216 94.62378069 154.75 122.3125 C155.02336182 123.35422363 155.02336182 123.35422363 155.30224609 124.41699219 C160.53425388 145.54285049 159.98562337 172.26181303 154.75 193.3125 C154.55132324 194.11220215 154.35264648 194.9119043 154.14794922 195.73583984 C146.71873753 224.52333952 132.35391228 248.96784389 111.75 270.3125 C110.95082153 271.1478125 110.95082153 271.1478125 110.13549805 272 C85.89832718 296.85793327 48.71325811 314.01168839 13.91455078 315.47363281 C9.56783314 315.51961851 5.22196525 315.55915697 0.875 315.5625 C0.08965881 315.56317474 -0.69568237 315.56384949 -1.50482178 315.56454468 C-13.02436764 315.54880076 -24.03261885 315.15955105 -35.25 312.3125 C-35.95141113 312.13557617 -36.65282227 311.95865234 -37.37548828 311.77636719 C-65.31539354 304.56566732 -89.40577015 291.26442549 -110.25 271.3125 C-111.0440625 270.58160156 -111.838125 269.85070312 -112.65625 269.09765625 C-124.64107016 257.7006991 -133.83475471 244.02490237 -141.25 229.3125 C-141.7756958 228.27319336 -141.7756958 228.27319336 -142.31201172 227.21289062 C-146.67400692 218.42052408 -150.008416 209.52327243 -152.625 200.0625 C-152.86371826 199.20060059 -153.10243652 198.33870117 -153.34838867 197.45068359 C-156.75092111 184.38938909 -157.63014504 171.48316656 -157.5625 158.0625 C-157.56034485 157.29114716 -157.5581897 156.51979431 -157.55596924 155.72506714 C-157.50502751 144.35784749 -157.15853964 133.35302615 -154.25 122.3125 C-153.94400879 121.12261475 -153.94400879 121.12261475 -153.63183594 119.90869141 C-146.26949955 91.97575139 -133.07110364 68.30157162 -113.25 47.3125 C-112.51652344 46.51457031 -111.78304687 45.71664062 -111.02734375 44.89453125 C-99.62365461 32.91970576 -85.96092358 23.72699996 -71.25 16.3125 C-70.55712891 15.96203613 -69.86425781 15.61157227 -69.15039062 15.25048828 C-60.35802408 10.88849308 -51.46077243 7.554084 -42 4.9375 C-41.13810059 4.69878174 -40.27620117 4.46006348 -39.38818359 4.21411133 C-26.32688909 0.81157889 -13.42066656 -0.06764504 0 0 Z " fill="#404040" transform="translate(157.25,-0.3125)"/>
<path d="M0 0 C1.59680855 -0.0076664 1.59680855 -0.0076664 3.22587585 -0.01548767 C6.72844135 -0.02933311 10.2308089 -0.02843035 13.73339844 -0.02612305 C16.18186516 -0.03001336 18.6303312 -0.03434872 21.07879639 -0.03910828 C26.20636178 -0.04656011 31.33385832 -0.04628714 36.46142578 -0.04101562 C43.00902256 -0.03522911 49.55633572 -0.0521376 56.10388565 -0.0753603 C61.16045765 -0.09014597 66.21696215 -0.09096264 71.27355194 -0.08785057 C73.6863028 -0.08836157 76.09905766 -0.09355744 78.51178741 -0.10366249 C81.89736441 -0.11610027 85.2823994 -0.10919057 88.66796875 -0.09765625 C89.65018906 -0.10529999 90.63240936 -0.11294373 91.64439392 -0.12081909 C105.87149196 -0.01453227 118.76856346 4.53026161 129.24902344 14.30200195 C140.29550964 26.12080605 143.23412482 38.4678031 143.25390625 54.17211914 C143.25887115 55.1293689 143.26383606 56.08661865 143.26895142 57.07287598 C143.28347463 60.21826922 143.29035833 63.36361204 143.29589844 66.5090332 C143.3001395 68.13044598 143.3001395 68.13044598 143.30446625 69.78461456 C143.31941858 75.50428 143.32867318 81.22392048 143.33300781 86.94360352 C143.33848843 92.82531591 143.3625194 98.70679636 143.39097977 104.58843613 C143.40968138 109.13544364 143.41481573 113.68239607 143.41634369 118.22943878 C143.41935345 120.3965812 143.42732468 122.56372305 143.44052887 124.73082733 C143.55143724 144.33106203 141.76444792 159.34870166 128.09277344 174.2746582 C117.88144003 183.85952944 104.9545384 187.58335389 91.29907227 187.54931641 C90.23467926 187.55442734 89.17028625 187.55953827 88.07363892 187.56480408 C84.56563645 187.57866826 81.05783125 187.57774518 77.54980469 187.57543945 C75.09990873 187.57932907 72.65001344 187.58366428 70.20011902 187.58842468 C65.0665773 187.59588079 59.93310434 187.59560068 54.79956055 187.59033203 C48.24408803 187.58454851 41.68889908 187.60144465 35.1334734 187.6246767 C30.0726102 187.63946351 25.01181443 187.64027883 19.95093346 187.63716698 C17.53539152 187.63767804 15.11984559 187.64287507 12.70432472 187.6529789 C9.3138493 187.66541722 5.92391507 187.65850637 2.53344727 187.64697266 C1.54965591 187.65461639 0.56586456 187.66226013 -0.44773865 187.6701355 C-15.16622252 187.56034665 -27.88412232 182.94779881 -38.58300781 172.78637695 C-52.22421347 158.04470429 -52.5163027 142.36710199 -52.43847656 123.37231445 C-52.44117598 121.04406065 -52.44506213 118.71580796 -52.45007324 116.38755798 C-52.45594823 111.52339882 -52.44747053 106.65953482 -52.42871094 101.79541016 C-52.40593584 95.59092453 -52.4190488 89.38713174 -52.44300079 83.18267155 C-52.45752367 78.37909317 -52.45282286 73.57567633 -52.44248962 68.77209282 C-52.43983959 66.48577223 -52.44303071 64.19943651 -52.45240784 61.91313362 C-52.51021804 43.8582064 -51.42973684 28.81841731 -38.65332031 14.80200195 C-27.52765354 4.1049323 -15.12832991 -0.03784563 0 0 Z " fill="#414141" transform="translate(111.9072265625,63.725341796875)"/>
<path d="M0 0 C1.59680855 -0.0076664 1.59680855 -0.0076664 3.22587585 -0.01548767 C6.72844135 -0.02933311 10.2308089 -0.02843035 13.73339844 -0.02612305 C16.18186516 -0.03001336 18.6303312 -0.03434872 21.07879639 -0.03910828 C26.20636178 -0.04656011 31.33385832 -0.04628714 36.46142578 -0.04101562 C43.00902256 -0.03522911 49.55633572 -0.0521376 56.10388565 -0.0753603 C61.16045765 -0.09014597 66.21696215 -0.09096264 71.27355194 -0.08785057 C73.6863028 -0.08836157 76.09905766 -0.09355744 78.51178741 -0.10366249 C81.89736441 -0.11610027 85.2823994 -0.10919057 88.66796875 -0.09765625 C89.65018906 -0.10529999 90.63240936 -0.11294373 91.64439392 -0.12081909 C105.87149196 -0.01453227 118.76856346 4.53026161 129.24902344 14.30200195 C140.29550964 26.12080605 143.23412482 38.4678031 143.25390625 54.17211914 C143.25887115 55.1293689 143.26383606 56.08661865 143.26895142 57.07287598 C143.28347463 60.21826922 143.29035833 63.36361204 143.29589844 66.5090332 C143.3001395 68.13044598 143.3001395 68.13044598 143.30446625 69.78461456 C143.31941858 75.50428 143.32867318 81.22392048 143.33300781 86.94360352 C143.33848843 92.82531591 143.3625194 98.70679636 143.39097977 104.58843613 C143.40968138 109.13544364 143.41481573 113.68239607 143.41634369 118.22943878 C143.41935345 120.3965812 143.42732468 122.56372305 143.44052887 124.73082733 C143.55143724 144.33106203 141.76444792 159.34870166 128.09277344 174.2746582 C117.88144003 183.85952944 104.9545384 187.58335389 91.29907227 187.54931641 C90.23467926 187.55442734 89.17028625 187.55953827 88.07363892 187.56480408 C84.56563645 187.57866826 81.05783125 187.57774518 77.54980469 187.57543945 C75.09990873 187.57932907 72.65001344 187.58366428 70.20011902 187.58842468 C65.0665773 187.59588079 59.93310434 187.59560068 54.79956055 187.59033203 C48.24408803 187.58454851 41.68889908 187.60144465 35.1334734 187.6246767 C30.0726102 187.63946351 25.01181443 187.64027883 19.95093346 187.63716698 C17.53539152 187.63767804 15.11984559 187.64287507 12.70432472 187.6529789 C9.3138493 187.66541722 5.92391507 187.65850637 2.53344727 187.64697266 C1.54965591 187.65461639 0.56586456 187.66226013 -0.44773865 187.6701355 C-15.16622252 187.56034665 -27.88412232 182.94779881 -38.58300781 172.78637695 C-52.22421347 158.04470429 -52.5163027 142.36710199 -52.43847656 123.37231445 C-52.44117598 121.04406065 -52.44506213 118.71580796 -52.45007324 116.38755798 C-52.45594823 111.52339882 -52.44747053 106.65953482 -52.42871094 101.79541016 C-52.40593584 95.59092453 -52.4190488 89.38713174 -52.44300079 83.18267155 C-52.45752367 78.37909317 -52.45282286 73.57567633 -52.44248962 68.77209282 C-52.43983959 66.48577223 -52.44303071 64.19943651 -52.45240784 61.91313362 C-52.51021804 43.8582064 -51.42973684 28.81841731 -38.65332031 14.80200195 C-27.52765354 4.1049323 -15.12832991 -0.03784563 0 0 Z M-27.87207031 28.4074707 C-36.14778724 40.06654215 -35.6295072 51.26663928 -35.53613281 65.0559082 C-35.53696276 67.2782808 -35.53942689 69.50065333 -35.54344177 71.72302246 C-35.54629048 76.36623757 -35.5316889 81.00896783 -35.50415039 85.65209961 C-35.47006996 91.57995885 -35.47609511 97.50695188 -35.49481297 103.4348526 C-35.50542178 108.019624 -35.49640986 112.60419663 -35.48142815 117.18894958 C-35.47627437 119.37364612 -35.47669375 121.55836366 -35.4829731 123.74305725 C-35.69509128 143.83950129 -35.69509128 143.83950129 -25.61816406 160.63012695 C-24.77125 161.44416992 -24.77125 161.44416992 -23.90722656 162.2746582 C-22.76253906 163.3884082 -22.76253906 163.3884082 -21.59472656 164.5246582 C-14.03666115 169.44618917 -6.82250285 170.86669522 2.07519531 170.79223633 C3.12373184 170.79924561 4.17226837 170.80625488 5.25257874 170.81347656 C8.68916988 170.83095894 12.12492516 170.819468 15.56152344 170.8059082 C17.9670833 170.8086059 20.37264209 170.81249064 22.77819824 170.81750488 C27.80813019 170.82338675 32.83777709 170.81487894 37.86767578 170.79614258 C44.29670658 170.77335434 50.7250693 170.7864844 57.15407562 170.81043243 C62.11795026 170.82492563 67.08166798 170.82026819 72.04554749 170.80992126 C74.41528911 170.80726373 76.78504523 170.81048925 79.1547699 170.81983948 C82.4736779 170.83006282 85.79152224 170.8144221 89.11035156 170.79223633 C90.07791885 170.80033325 91.04548615 170.80843018 92.04237366 170.81677246 C102.7602915 170.6848589 110.28886594 166.92189564 117.95996094 159.57543945 C125.03703021 151.94101857 126.39169013 143.51806328 126.39916992 133.49072266 C126.4116552 132.05506706 126.4116552 132.05506706 126.4243927 130.59040833 C126.44840344 127.43954343 126.45725472 124.28888602 126.46386719 121.13793945 C126.47284151 118.93466635 126.4819635 116.73139385 126.4912262 114.52812195 C126.50769539 109.91245039 126.51541233 105.29685118 126.51831055 100.68115234 C126.52368675 94.79137163 126.56134502 88.90227919 126.60705471 83.01269245 C126.6369253 78.46137564 126.64403631 73.91022242 126.6450367 69.35881615 C126.64922046 67.18886354 126.66157987 65.01890961 126.68255424 62.84905434 C126.89133473 43.38546469 126.89133473 43.38546469 117.40527344 26.8371582 C111.51458321 21.46162339 103.76090344 17.1781247 95.67469788 17.12075806 C94.77077301 17.11215759 93.86684814 17.10355713 92.93553162 17.09469604 C91.94593948 17.0904361 90.95634735 17.08617615 89.93676758 17.08178711 C88.89246582 17.07360962 87.84816406 17.06543213 86.7722168 17.05700684 C83.30746024 17.03214688 79.84274483 17.01563077 76.37792969 17.0012207 C75.19310942 16.99589703 74.00828915 16.99057335 72.78756523 16.98508835 C66.51032025 16.95834786 60.23309517 16.93898009 53.95581055 16.92456055 C48.77138526 16.91124675 43.58735593 16.88344189 38.40307617 16.8425293 C32.13610158 16.79307333 25.86948493 16.76842266 19.60232353 16.76133347 C17.22024061 16.75464083 14.83816505 16.73947103 12.45619392 16.71544266 C-3.6349466 16.56244826 -15.82755498 16.47899117 -27.87207031 28.4074707 Z " fill="#FDFDFD" transform="translate(111.9072265625,63.725341796875)"/>
<path d="M0 0 C7.84530173 7.67096169 14.28442536 18.26396327 14.98046875 29.44921875 C15.02224358 35.84076831 14.69784824 41.6280359 12.8125 47.75 C12.44511719 48.95076172 12.44511719 48.95076172 12.0703125 50.17578125 C8.25435337 61.03269151 0.8801883 69.26359724 -9.1875 74.75 C-21.2279795 80.37746017 -32.39546108 81.48634527 -45.20703125 77.84765625 C-58.75824105 72.85697479 -66.75738694 64.53051239 -72.9609375 51.7421875 C-77.31426142 41.12229539 -78.02949649 29.71511525 -74.125 18.875 C-68.44695363 6.04388405 -59.48744216 -4.08233331 -46.1875 -9.25 C-29.32593797 -14.96578374 -13.92088339 -9.82650592 0 0 Z " fill="#FBFBFB" transform="translate(188.1875,123.25)"/>
<path d="M0 0 C6.37727199 4.71712039 10.36899277 11.2565264 12 19 C12.76037209 27.66824186 10.33368862 35.53550835 4.875 42.375 C-0.61441082 48.16145686 -8.62683446 52.07128548 -16.625 52.3125 C-24.79548014 52.19374302 -31.23626647 48.70576611 -37.13671875 43.171875 C-42.73698959 36.64409599 -46.00869026 29.24690938 -45.44921875 20.59375 C-43.83120436 11.25147562 -38.30293298 4.33696844 -30.9375 -1.375 C-20.22990513 -7.29835035 -10.47120255 -5.84851369 0 0 Z " fill="#424242" transform="translate(174,134)"/>
<path d="M0 0 C3.75212276 2.01502889 5.63644095 3.45466142 8 7 C8.66624845 11.07463524 8.94496094 15.24356703 6.94921875 18.953125 C4.54480216 21.87530681 2.60173645 23.82706916 -1.20703125 24.23828125 C-8.24770268 24.43884011 -8.24770268 24.43884011 -12 22.25 C-15.47240802 18.34354097 -16.56188974 15.49241232 -16.4609375 10.1015625 C-15.60803882 6.21292275 -12.90176501 3.59354645 -10 1 C-6.78734554 -0.60632723 -3.48478188 -0.47931944 0 0 Z " fill="#FBFBFB" transform="translate(211,95)"/>
</svg>
