<?xml version="1.0" encoding="UTF-8"?>
<svg version="1.1" xmlns="http://www.w3.org/2000/svg" width="315" height="315">
<path d="M0 0 C9.81346982 7.64998151 15.20061303 18.17216369 17.1875 30.375 C17.27497331 33.02156426 17.31405469 35.640553 17.30102539 38.28637695 C17.30117142 39.06739273 17.30131744 39.84840851 17.3014679 40.65309143 C17.3007737 43.22318339 17.29300446 45.79320202 17.28515625 48.36328125 C17.28329032 50.14975444 17.28186724 51.93622814 17.28086853 53.72270203 C17.27705716 58.41624371 17.26723867 63.10975427 17.25616455 67.80328369 C17.24411852 73.43927619 17.23954162 79.07527912 17.23371124 84.71128082 C17.22402617 93.2658755 17.20485995 101.82040194 17.1875 110.375 C5.3075 110.375 -6.5725 110.375 -18.8125 110.375 C-18.84988281 105.4146875 -18.88726562 100.454375 -18.92578125 95.34375 C-18.95607868 92.19007028 -18.98723803 89.03644579 -19.02148438 85.8828125 C-19.07568857 80.8838183 -19.12680297 75.88493334 -19.15893555 70.88574219 C-19.18505962 66.85254781 -19.22552529 62.81972294 -19.27568626 58.78675842 C-19.29229372 57.2527376 -19.30384596 55.71865296 -19.31011391 54.18455505 C-19.29906409 39.54290998 -19.29906409 39.54290998 -26.8125 27.375 C-32.48969447 23.59020369 -38.79928312 22.82023178 -45.46875 23.7421875 C-50.6864787 25.01518758 -54.38134827 26.79873956 -57.52836609 31.2427063 C-62.63140151 39.71625426 -62.28302304 49.44065842 -62.32421875 59.0078125 C-62.34109745 60.49569143 -62.3592519 61.98355638 -62.37861633 63.47140503 C-62.42577674 67.35432564 -62.45580421 71.23718956 -62.48205566 75.12030029 C-62.51732132 79.79707755 -62.57423568 84.47363717 -62.62744904 89.15023804 C-62.70556403 96.22512956 -62.75646985 103.29974408 -62.8125 110.375 C-74.6925 110.375 -86.5725 110.375 -98.8125 110.375 C-98.8125 71.765 -98.8125 33.155 -98.8125 -6.625 C-86.9325 -6.625 -75.0525 -6.625 -62.8125 -6.625 C-62.3175 -0.19 -62.3175 -0.19 -61.8125 6.375 C-59.9253125 4.5496875 -59.9253125 4.5496875 -58 2.6875 C-42.14073024 -11.4430342 -17.2736632 -11.5469413 0 0 Z " fill="#FEFFFC" transform="translate(228.8125,131.625)"/>
<path d="M0 0 C12.54 0 25.08 0 38 0 C38 39.27 38 78.54 38 119 C25.46 119 12.92 119 0 119 C0 79.73 0 40.46 0 0 Z " fill="#FDFFFC" transform="translate(72,125)"/>
<path d="M0 0 C4.82815998 2.90727913 8.71479949 7.08189847 10.5 12.4375 C11.17765645 19.51416946 11.5028577 25.89091399 7.12890625 31.78515625 C1.93827508 37.05047276 -3.79508443 39.52317851 -11.125 39.75 C-17.57959054 39.65479955 -23.3724021 38.04813957 -28.390625 33.859375 C-32.47150927 29.46152884 -34.45932728 25.0864242 -34.52734375 18.984375 C-34.15846998 12.66622948 -32.68848618 8.58218829 -28.078125 4.03515625 C-20.58425612 -2.62820654 -9.25311047 -4.17016391 0 0 Z " fill="#FEFFFC" transform="translate(102.5,70.5625)"/>
</svg>
