<?xml version="1.0" encoding="UTF-8"?>
<svg version="1.1" xmlns="http://www.w3.org/2000/svg" width="315" height="315">
<path d="M0 0 C0.77135284 0.00215515 1.54270569 0.0043103 2.33743286 0.00653076 C13.70465251 0.05747249 24.70947385 0.40396036 35.75 3.3125 C36.54325684 3.51649414 37.33651367 3.72048828 38.15380859 3.93066406 C66.08674861 11.29300045 89.76092838 24.49139636 110.75 44.3125 C111.54792969 45.04597656 112.34585937 45.77945313 113.16796875 46.53515625 C138.72968423 70.87771201 156.42500061 108.77349935 157.91113281 144.14794922 C158.28861589 179.82887915 158.28861589 179.82887915 154.75 193.3125 C154.45198486 194.48643311 154.45198486 194.48643311 154.14794922 195.68408203 C143.53651259 236.500357 118.40134394 272.31815436 81.84863281 293.93896484 C78.53069225 295.82777762 75.15901059 297.5943136 71.75 299.3125 C71.05712891 299.66296387 70.36425781 300.01342773 69.65039062 300.37451172 C60.85802408 304.73650692 51.96077243 308.070916 42.5 310.6875 C41.63810059 310.92621826 40.77620117 311.16493652 39.88818359 311.41088867 C26.82688909 314.81342111 13.92066656 315.69264504 0.5 315.625 C-0.27135284 315.62284485 -1.04270569 315.6206897 -1.83743286 315.61846924 C-13.20465251 315.56752751 -24.20947385 315.22103964 -35.25 312.3125 C-36.43988525 312.00650879 -36.43988525 312.00650879 -37.65380859 311.69433594 C-65.58674861 304.33199955 -89.26092838 291.13360364 -110.25 271.3125 C-111.04792969 270.57902344 -111.84585938 269.84554688 -112.66796875 269.08984375 C-134.05455391 248.7232865 -146.98044183 221.58108994 -154.25 193.3125 C-154.43079102 192.62623535 -154.61158203 191.9399707 -154.79785156 191.23291016 C-164.22991868 153.53276913 -155.67011993 109.47775018 -136.0234375 76.5 C-129.23701173 65.49873893 -121.0406133 55.75708626 -112.25 46.3125 C-111.25613281 45.22001953 -111.25613281 45.22001953 -110.2421875 44.10546875 C-99.17381214 32.42685977 -85.55031464 23.52004763 -71.25 16.3125 C-70.55712891 15.96203613 -69.86425781 15.61157227 -69.15039062 15.25048828 C-60.35802408 10.88849308 -51.46077243 7.554084 -42 4.9375 C-41.13810059 4.69878174 -40.27620117 4.46006348 -39.38818359 4.21411133 C-26.32688909 0.81157889 -13.42066656 -0.06764504 0 0 Z " fill="#404040" transform="translate(157.25,-0.3125)"/>
<path d="M0 0 C9.36216062 8.68161063 14.52979619 20.53545161 15.28234863 33.23236084 C15.44505051 38.01780286 15.38904248 42.79907981 15.328125 47.5859375 C15.32064439 49.33712104 15.31496009 51.08831308 15.31097412 52.83950806 C15.29586071 57.3999838 15.2567064 61.95993215 15.2121582 66.52020264 C15.16360994 72.01781316 15.14560323 77.51560219 15.12234497 83.0133667 C15.08384324 91.32177547 15.00709163 99.62903209 14.9375 107.9375 C3.0575 107.9375 -8.8225 107.9375 -21.0625 107.9375 C-21.07667969 102.760625 -21.09085937 97.58375 -21.10546875 92.25 C-21.12553887 88.95956801 -21.14706838 85.66927406 -21.17382812 82.37890625 C-21.21611336 77.16254314 -21.25315237 71.94653014 -21.25805664 66.72998047 C-21.26235247 62.52157818 -21.29092044 58.31396123 -21.33593178 54.10580444 C-21.34886598 52.5047972 -21.35322895 50.90369578 -21.34865379 49.30264282 C-21.15788206 37.17940971 -21.15788206 37.17940971 -27.0625 26.9375 C-32.63615102 21.64253153 -37.78434855 20.51996491 -45.27734375 20.69140625 C-51.01906323 21.19873911 -54.69515524 22.63092612 -58.875 26.625 C-64.67884057 35.41367287 -64.53259493 43.84369943 -64.57421875 54.03125 C-64.59108578 55.58924761 -64.60923872 57.14723179 -64.62861633 58.7052002 C-64.67590308 62.78214314 -64.70584971 66.85903156 -64.73205566 70.93615723 C-64.76723992 75.84065151 -64.82419135 80.74493655 -64.87744904 85.64926147 C-64.95571269 93.07864689 -65.00650666 100.50776314 -65.0625 107.9375 C-76.9425 107.9375 -88.8225 107.9375 -101.0625 107.9375 C-101.0625 69.3275 -101.0625 30.7175 -101.0625 -9.0625 C-89.1825 -9.0625 -77.3025 -9.0625 -65.0625 -9.0625 C-64.5675 -2.1325 -64.5675 -2.1325 -64.0625 4.9375 C-63.134375 3.90625 -62.20625 2.875 -61.25 1.8125 C-44.87062385 -14.53371952 -17.65494308 -14.17130488 0 0 Z " fill="#FBFCF9" transform="translate(231.0625,134.0625)"/>
<path d="M0 0 C12.54 0 25.08 0 38 0 C38 38.94 38 77.88 38 118 C25.46 118 12.92 118 0 118 C0 79.06 0 40.12 0 0 Z " fill="#FAFBF8" transform="translate(72,126)"/>
<path d="M0 0 C5.17910446 3.02295009 9.78433344 7.79050031 11.6875 13.5 C12.42820307 20.33632503 11.78435922 25.85739328 7.6875 31.5 C3.07657468 36.34517019 -1.2403885 38.73290529 -7.94824219 38.9309082 C-15.18719781 38.9534777 -20.86573287 38.75944445 -26.3125 33.5 C-31.53450713 28.00315039 -32.85354874 22.71318909 -32.68359375 15.28515625 C-31.96726427 9.90891502 -29.55070852 6.246151 -25.3046875 2.93359375 C-17.76562232 -1.94871599 -8.52407821 -3.7940505 0 0 Z " fill="#FBFCF9" transform="translate(101.3125,70.5)"/>
</svg>
