<?xml version="1.0" encoding="UTF-8"?>
<svg version="1.1" xmlns="http://www.w3.org/2000/svg" width="316" height="315">
<path d="M0 0 C7.18742165 -0.44398789 14.37181752 -0.77956103 21.570261 -0.98443127 C24.91727891 -1.08294402 28.24774496 -1.22610528 31.59082031 -1.43334961 C53.08966992 -2.73180294 53.08966992 -2.73180294 59.51501465 1.75701904 C63.8725509 6.16310894 66.88556835 11.2456682 69.7555542 16.70321655 C71.34714923 19.64070819 73.28115642 22.18392116 75.375 24.78125 C76.28342651 25.96581787 76.28342651 25.96581787 77.21020508 27.17431641 C77.8008374 27.94179199 78.39146973 28.70926758 79 29.5 C84.96004586 37.27601453 90.81612686 45.12056152 96.57226562 53.04882812 C97.11173828 53.78810547 97.65121094 54.52738281 98.20703125 55.2890625 C98.6760083 55.93568848 99.14498535 56.58231445 99.62817383 57.24853516 C100.97910503 58.97332257 102.4183387 60.48680258 104 62 C105.69087177 60.33664694 107.37764845 58.66943461 109.0625 57 C109.52849609 56.54238281 109.99449219 56.08476563 110.47460938 55.61328125 C113.87296409 52.23804459 117.03287711 48.70399196 120.16772461 45.08398438 C123.27115867 41.5542158 126.51475425 38.15856952 129.75 34.75 C134.42883468 29.80014674 139.09199605 24.83988685 143.6875 19.8125 C144.55503906 18.88566406 145.42257813 17.95882812 146.31640625 17.00390625 C148.33325543 14.80960416 150.15612424 12.52055738 151.96484375 10.15234375 C159.47469176 0.6893722 159.47469176 0.6893722 164.23583984 -0.61035156 C169.23817395 -1.18552206 174.03896078 -0.74861191 179 0 C177.62076149 3.0768608 176.02099102 5.25895322 173.69140625 7.6875 C172.70309814 8.72608154 172.70309814 8.72608154 171.69482422 9.78564453 C170.99115723 10.51638184 170.28749023 11.24711914 169.5625 12 C168.09704637 13.5384818 166.63220425 15.07754631 165.16796875 16.6171875 C164.4517334 17.36838867 163.73549805 18.11958984 162.99755859 18.89355469 C160.42326107 21.60817692 157.89514198 24.36000118 155.375 27.125 C151.28075654 31.61268427 147.14997544 36.06381935 143 40.5 C137.88572737 45.96850796 132.80576094 51.4660156 127.75390625 56.9921875 C122.85676799 62.34725398 117.92522722 67.67078381 113 73 C114.59594496 78.2408773 117.93751929 81.99026936 121.3125 86.1875 C126.14856641 92.29755716 130.85288099 98.46651162 135.375 104.8125 C140.76598789 112.36153926 146.34502133 119.75033772 151.98779297 127.11254883 C156.96601717 133.6168961 161.84662458 140.18581947 166.67993164 146.79833984 C169.8816771 151.16556655 173.12945746 155.49172901 176.4296875 159.78515625 C177.16960937 160.74808594 177.90953125 161.71101562 178.671875 162.703125 C180.11810012 164.58014058 181.56849302 166.45395376 183.0234375 168.32421875 C183.99796875 169.58878906 183.99796875 169.58878906 184.9921875 170.87890625 C185.86399658 172.00147827 185.86399658 172.00147827 186.75341797 173.14672852 C188 175 188 175 188 177 C180.17847797 177.53751199 172.36176568 177.90207646 164.52587891 178.15356445 C161.86168212 178.24671255 159.22192176 178.40064606 156.56005859 178.58422852 C135.17937577 180.02060484 135.17937577 180.02060484 128.26611328 175.02410889 C123.4540724 170.16440611 119.93467468 164.64641445 116.58901978 158.71342468 C114.05959735 154.39415984 111.02691192 150.47782263 108 146.5 C106.86457251 144.95634712 105.73145316 143.41099146 104.6015625 141.86328125 C99.92849006 135.52050722 95.13239333 129.27105889 90.328125 123.02734375 C87.06335006 118.77124039 83.90074536 114.5130886 81 110 C77.96867649 111.34556167 75.99073698 112.80345131 73.75 115.23828125 C73.14776611 115.88692139 72.54553223 116.53556152 71.92504883 117.20385742 C71.28978271 117.89970947 70.6545166 118.59556152 70 119.3125 C69.33572998 120.03091064 68.67145996 120.74932129 67.98706055 121.48950195 C65.98636012 123.65510976 63.99303722 125.8273415 62 128 C60.92391298 129.16474281 59.84714947 130.3288612 58.76953125 131.4921875 C55.84029493 134.65589644 52.91963314 137.82743079 50 141 C48.04247428 143.12574546 46.0840731 145.25068053 44.125 147.375 C43.63854004 147.90270996 43.15208008 148.43041992 42.65087891 148.97412109 C39.90423584 151.94987482 37.14705282 154.91532591 34.37890625 157.87109375 C33.76934082 158.52343994 33.15977539 159.17578613 32.53173828 159.84790039 C31.31092463 161.14838853 30.08409599 162.44325854 28.85107422 163.73217773 C25.76066398 166.98494804 23.20575933 170.17067133 20.75 173.9375 C18.97455861 176.09505739 17.73014799 176.88779073 14.96337891 177.31298828 C9.61539333 177.67156759 4.33795258 177.40670115 -1 177 C3.15468878 171.01066074 7.87963267 165.97223276 13.12109375 160.90625 C15.97344825 158.0968331 18.57174021 155.0921686 21.19018555 152.06591797 C24.10653236 148.73688428 27.147915 145.52868838 30.1875 142.3125 C31.51080806 140.9066183 32.83371972 139.50036339 34.15625 138.09375 C34.8059375 137.4028125 35.455625 136.711875 36.125 136 C40.29060995 131.55668272 44.41102943 127.07161843 48.53515625 122.58984375 C50.05237245 120.94315843 51.5726475 119.29934569 53.09375 117.65625 C59.11492198 111.15009431 65.09188571 104.60932987 71 98 C67.03923038 91.95489536 62.92816457 86.05577771 58.625 80.25 C58.02558594 79.43853516 57.42617187 78.62707031 56.80859375 77.79101562 C51.59470167 70.75494889 46.28561826 63.79312383 40.96337891 56.83886719 C36.00121523 50.34463996 31.13724284 43.7844402 26.30883789 37.19042969 C21.10122289 30.09636377 15.77278613 23.09715072 10.41601562 16.11523438 C0 2.5203737 0 2.5203737 0 0 Z M26 13 C27.33441371 15.82749964 28.83769351 18.29610568 30.6953125 20.80859375 C31.23833008 21.54505127 31.78134766 22.28150879 32.34082031 23.0402832 C32.92959961 23.83136475 33.51837891 24.62244629 34.125 25.4375 C35.04684082 26.68309692 35.04684082 26.68309692 35.98730469 27.95385742 C41.36125994 35.19275617 46.8355074 42.35381637 52.31689453 49.51147461 C56.36622018 54.81275855 60.30684763 60.16858793 64.14257812 65.62548828 C68.54319952 71.84399405 73.20347725 77.86366787 77.8359375 83.91015625 C82.28724225 89.72852838 86.6724824 95.58907773 91 101.5 C96.58211645 109.1216133 102.28355098 116.64505816 108.02587891 124.14648438 C111.92911244 129.25486374 115.79172631 134.38892448 119.59130859 139.57495117 C120.76912609 141.17627353 121.95680593 142.77039405 123.15478516 144.35668945 C125.76975674 147.83453485 128.19924106 151.23187308 130.25 155.07421875 C133.25134719 160.37419883 133.25134719 160.37419883 138 164 C145.89942105 165.51911943 154.04797476 164.80241955 162 164 C159.02433404 158.4551005 155.54617734 153.66073001 151.625 148.75 C146.64391496 142.42880949 141.75947877 136.05233165 137 129.5625 C136.42185547 128.77439941 135.84371094 127.98629883 135.24804688 127.17431641 C133.49709636 124.78404497 131.74838913 122.39214542 130 120 C122.09280883 109.19560319 114.0988782 98.46871391 105.96142578 87.83642578 C100.99335512 81.33418614 96.12420401 74.76546576 91.2890625 68.1640625 C86.9272293 62.22328516 82.47943803 56.35248083 78 50.5 C71.59852383 42.13593134 65.31053147 33.69556234 59.0859375 25.19921875 C58.56306152 24.50683105 58.04018555 23.81444336 57.50146484 23.10107422 C56 21 56 21 54.70556641 18.69970703 C53.29567494 16.35644154 52.13966122 14.71222695 50 13 C45.82933631 12.03987144 41.87574818 12.23964793 37.625 12.5 C36.50738281 12.53609375 35.38976562 12.5721875 34.23828125 12.609375 C31.48864706 12.70337959 28.74611154 12.83460991 26 13 Z " fill="#F5F5F5" transform="translate(64,69)"/>
</svg>
