<?xml version="1.0" encoding="UTF-8"?>
<svg version="1.1" xmlns="http://www.w3.org/2000/svg" width="316" height="315">
<path d="M0 0 C0.7738504 0.00215515 1.54770081 0.0043103 2.34500122 0.00653076 C13.73393188 0.05743791 24.74933115 0.40910294 35.8125 3.3125 C36.98643311 3.61051514 36.98643311 3.61051514 38.18408203 3.91455078 C67.13130528 11.4402651 91.21485581 25.76388424 112.8125 46.3125 C113.50859375 46.94414063 114.2046875 47.57578125 114.921875 48.2265625 C142.6520937 74.23796599 157.48441488 114.94293257 158.8125 152.3125 C159.67506578 198.31767006 142.25984111 238.80505248 110.6875 271.8125 C89.69940651 292.26472727 63.99410491 304.97477605 35.8125 312.3125 C34.77875244 312.58586182 34.77875244 312.58586182 33.72412109 312.86474609 C-2.50596235 321.92452063 -44.05104606 314.28207169 -76.1875 296.3125 C-76.83444824 295.95397949 -77.48139648 295.59545898 -78.14794922 295.22607422 C-86.86069464 290.34685054 -94.6866165 284.94705339 -102.1875 278.3125 C-103.15171875 277.48105469 -104.1159375 276.64960938 -105.109375 275.79296875 C-128.68270212 255.13612707 -145.2107459 227.60407685 -152.9375 197.25 C-153.13625732 196.47172852 -153.33501465 195.69345703 -153.53979492 194.89160156 C-156.47528129 182.70675375 -157.55407012 170.6402728 -157.5 158.125 C-157.49817719 157.45062897 -157.49635437 156.77625793 -157.49447632 156.08145142 C-157.4439021 144.91542248 -156.71308609 134.20036127 -154.1875 123.3125 C-154.02121094 122.57322266 -153.85492188 121.83394531 -153.68359375 121.07226562 C-150.92766729 109.18095329 -146.53655956 98.26069819 -141.1875 87.3125 C-140.6203125 86.14847656 -140.053125 84.98445313 -139.46875 83.78515625 C-120.03276866 45.96750387 -86.08885803 19.56398763 -46.1875 6.3125 C-40.92117357 4.69295581 -35.60244046 3.33668441 -30.1875 2.3125 C-29.27830811 2.13662354 -28.36911621 1.96074707 -27.43237305 1.77954102 C-18.25866748 0.17508781 -9.28120802 -0.04651486 0 0 Z " fill="#404040" transform="translate(157.1875,-0.3125)"/>
<path d="M0 0 C7.71655138 -0.46002362 15.42953335 -0.7729794 23.15673828 -0.98876953 C25.77852383 -1.07877546 28.39941859 -1.20124453 31.01806641 -1.35791016 C52.1247752 -2.58812975 52.1247752 -2.58812975 58.51971436 1.68283081 C62.78722522 5.77336819 65.80365127 10.46700537 68.63911438 15.62077332 C70.90133365 19.57579523 73.65548141 23.16414224 76.375 26.8125 C77.43404237 28.29264787 78.49275249 29.77303367 79.55078125 31.25390625 C84.10783893 37.57637103 88.86422192 43.74799994 93.62060547 49.92114258 C96.90419215 54.19392519 100.08773284 58.46486641 103 63 C107.9578 58.93086226 112.42125124 54.6026437 116.75 49.875 C117.35779297 49.21757813 117.96558594 48.56015625 118.59179688 47.8828125 C120.39893444 45.92587024 122.20048083 43.96394742 124 42 C124.49048828 41.46536133 124.98097656 40.93072266 125.48632812 40.37988281 C127.71192256 37.95325674 129.93485324 35.5242194 132.15625 33.09375 C136.00121357 28.89924429 139.89489324 24.75015727 143.78222656 20.5949707 C148.52014435 15.52602795 153.21440236 10.41882818 157.890625 5.29296875 C161.83167961 1.00889643 161.83167961 1.00889643 165.6953125 0.8046875 C167.17200108 0.817991 168.64862358 0.84185165 170.125 0.875 C170.87910156 0.88402344 171.63320312 0.89304687 172.41015625 0.90234375 C174.27357254 0.9259313 176.13682593 0.96180281 178 1 C171.41731831 8.70655418 164.77500707 16.32046327 157.8125 23.6875 C156.48919194 25.0933817 155.16628028 26.49963661 153.84375 27.90625 C153.1940625 28.5971875 152.544375 29.288125 151.875 30 C147.71221528 34.4403037 143.59484038 38.92252262 139.47363281 43.40136719 C137.93077202 45.0751002 136.38383349 46.74498566 134.8359375 48.4140625 C128.4294419 55.32024895 128.4294419 55.32024895 122.1875 62.375 C118.96945113 66.10032751 115.52764822 69.5688528 112 73 C113.33441371 75.82749964 114.83769351 78.29610568 116.6953125 80.80859375 C117.23800781 81.54464844 117.78070313 82.28070313 118.33984375 83.0390625 C118.92894531 83.83054687 119.51804687 84.62203125 120.125 85.4375 C120.74246094 86.27152344 121.35992187 87.10554688 121.99609375 87.96484375 C127.27742399 95.07717626 132.64915448 102.11933333 138.03125 109.15551758 C144.21551905 117.25222407 150.26565378 125.44309513 156.28662109 133.66162109 C159.16538691 137.59049242 162.05069134 141.51453612 164.9375 145.4375 C165.50243164 146.20650635 166.06736328 146.9755127 166.64941406 147.76782227 C169.80798969 152.05847349 172.99535417 156.32513832 176.21484375 160.5703125 C176.90908447 161.48756104 177.6033252 162.40480957 178.31860352 163.34985352 C179.66776541 165.12956833 181.02098873 166.90621308 182.37866211 168.67944336 C182.98331299 169.47745361 183.58796387 170.27546387 184.2109375 171.09765625 C184.75024902 171.80414307 185.28956055 172.51062988 185.84521484 173.23852539 C187 175 187 175 187 177 C179.3328271 177.27992155 171.66697917 177.47194572 163.99584961 177.60424805 C161.38922902 177.6594189 158.78294662 177.73437863 156.17749023 177.82983398 C133.34138971 178.64525327 133.34138971 178.64525327 128.47290039 174.81884766 C126.13839813 171.98841486 124.58451038 169.29942091 123 166 C121.88332557 164.45472548 120.73481296 162.93179048 119.55078125 161.4375 C118.46836405 159.96052002 117.38899178 158.48130426 116.3125 157 C115.10034095 155.34369106 113.88809898 153.6874428 112.67578125 152.03125 C112.06686035 151.19722656 111.45793945 150.36320313 110.83056641 149.50390625 C107.89889118 145.49386876 104.94881994 141.49743674 102 137.5 C100.85146786 135.94147599 99.70303088 134.38288185 98.5546875 132.82421875 C97.97944336 132.04353027 97.40419922 131.2628418 96.81152344 130.45849609 C91.54101562 123.30566406 86.27050781 116.15283203 81 109 C78.10368126 110.30016516 76.14805694 111.63510423 74.01171875 113.9765625 C73.46966797 114.56566406 72.92761719 115.15476562 72.36914062 115.76171875 C71.81419922 116.37660156 71.25925781 116.99148437 70.6875 117.625 C70.14416016 118.21667969 69.60082031 118.80835938 69.04101562 119.41796875 C66.17108569 122.5555781 63.35414688 125.73456629 60.56640625 128.9453125 C56.90050334 133.14958612 53.08962597 137.20469648 49.25 141.25 C44.59119808 146.17838127 39.9484665 151.11725775 35.375 156.125 C34.51003906 157.05054688 33.64507812 157.97609375 32.75390625 158.9296875 C30.64237491 161.22519842 28.70568273 163.61937148 26.77734375 166.0703125 C17.7548837 177.15045896 17.7548837 177.15045896 11.55078125 177.94921875 C7.61641758 178.08854915 3.87182429 177.67882634 0 177 C1.54127351 173.28731906 3.80843234 171.01884302 6.6875 168.25 C10.39238207 164.67764092 13.8123308 160.96594775 17.17700195 157.07910156 C20.11831091 153.7245834 23.18536694 150.49152386 26.25 147.25 C31.60874384 141.55893096 36.92029879 135.83096552 42.19140625 130.05859375 C45.43557061 126.51536346 48.71884607 123.00893798 52 119.5 C53.18103964 118.23311958 54.36202972 116.96619295 55.54296875 115.69921875 C57.78473228 113.29549079 60.0380247 110.90349474 62.30078125 108.51953125 C63.30487563 107.45069754 64.30879186 106.38169642 65.3125 105.3125 C66.19550781 104.38050781 67.07851562 103.44851562 67.98828125 102.48828125 C69.96222449 100.04672428 70.72215536 99.05347024 71 96 C69.88489185 93.8107109 69.88489185 93.8107109 68.08984375 91.68359375 C67.43677246 90.84683105 66.78370117 90.01006836 66.11083984 89.14794922 C65.3936377 88.25350098 64.67643555 87.35905273 63.9375 86.4375 C62.44785996 84.53361444 60.95960454 82.62864482 59.47265625 80.72265625 C58.71871582 79.76246582 57.96477539 78.80227539 57.18798828 77.81298828 C54.00656947 73.72279551 50.93387866 69.55720807 47.875 65.375 C47.30499268 64.59874268 46.73498535 63.82248535 46.14770508 63.02270508 C43.85945355 59.90577568 41.57537508 56.78579797 39.29101562 53.66601562 C32.54779673 44.46232917 25.7432771 35.31357591 18.8125 26.25 C13.99562995 19.95012346 9.20120611 13.6368385 4.5 7.25 C4.03698486 6.62383789 3.57396973 5.99767578 3.09692383 5.35253906 C0 1.12194684 0 1.12194684 0 0 Z " fill="#F9F9F9" transform="translate(64,69)"/>
<path d="M0 0 C21.41244768 -2.98267233 21.41244768 -2.98267233 28.34765625 1.52636719 C32.56592101 5.81493636 35.41830907 11.01027331 38.34863281 16.22412109 C41.16208467 20.95341554 44.60122563 25.18267061 48 29.5 C49.35495492 31.26563097 50.70653807 33.03385473 52.0546875 34.8046875 C52.71436523 35.67061523 53.37404297 36.53654297 54.05371094 37.42871094 C60.03235026 45.32723444 65.85683826 53.34162483 71.70898438 61.33398438 C79.05188811 71.35616884 86.48735999 81.29725718 94.03857422 91.16357422 C99.00219396 97.65998848 103.8675121 104.22244678 108.69775391 110.81835938 C113.18677987 116.93314069 117.76677093 122.97467637 122.375 129 C138 149.4389881 138 149.4389881 138 151 C116.85104818 154.30452372 116.85104818 154.30452372 109.42382812 149.24511719 C104.65833942 144.41047231 101.19660284 138.68732367 97.74853516 132.87304688 C95.09393164 128.51122417 92.02023908 124.50177563 88.9375 120.4375 C87.78784285 118.87555088 86.64071266 117.31173872 85.49609375 115.74609375 C81.86544647 110.80452165 78.18596211 105.90038463 74.5 101 C69.64790452 94.54927333 64.83588485 88.07166116 60.0625 81.5625 C54.4523016 73.91685547 48.7247857 66.36661918 42.96118164 58.83618164 C37.99834794 52.34061126 33.13292349 45.77963213 28.30444336 39.18383789 C23.16139162 32.17631089 17.89583398 25.26521806 12.59179688 18.37890625 C0 1.96945256 0 1.96945256 0 0 Z " fill="#424242" transform="translate(89,82)"/>
</svg>
