<?xml version="1.0" encoding="UTF-8"?>
<svg version="1.1" xmlns="http://www.w3.org/2000/svg" width="315" height="315">
<path d="M0 0 C2.46176327 -0.00742829 4.92351926 -0.0180395 7.38525391 -0.03204346 C43.76243771 -0.22229151 43.76243771 -0.22229151 53.16943359 7.17623901 C66.3004393 20.30724472 66.31764126 41.12418831 66.33740234 58.59030151 C66.34073074 59.64422089 66.34405914 60.69814026 66.3474884 61.78399658 C66.3525177 64.00083993 66.35489798 66.21769075 66.35473633 68.43453979 C66.35691435 71.77174808 66.37509028 75.10862059 66.39404297 78.44577026 C66.50295679 119.66447403 66.50295679 119.66447403 55.59130859 131.95358276 C44.76607548 142.71058962 28.46440564 142.32755042 14.18066406 142.32150269 C12.44675163 142.3265406 12.44675163 142.3265406 10.67781067 142.3316803 C6.88073634 142.34112862 3.08370642 142.34313045 -0.71337891 142.34420776 C-2.70015723 142.34661056 -4.68693556 142.34901545 -6.67371356 142.35166818 C-12.91675629 142.35978164 -19.15978463 142.36225536 -25.40283203 142.36154175 C-31.799993 142.36094243 -38.19706926 142.37147222 -44.59420884 142.38728541 C-50.12243193 142.40045368 -55.65062766 142.40572175 -61.17886627 142.40508634 C-64.46455583 142.40483396 -67.75015417 142.40849044 -71.03583145 142.41826439 C-113.79663309 142.5335417 -113.79663309 142.5335417 -124.76025391 132.39108276 C-139.58578722 114.43079738 -136.27436902 83.07768241 -135.83056641 61.17623901 C-135.81268066 60.28372437 -135.79479492 59.39120972 -135.77636719 58.47164917 C-135.00840471 26.24525275 -135.00840471 26.24525275 -126.83056641 13.17623901 C-126.27369141 12.26873901 -125.71681641 11.36123901 -125.14306641 10.42623901 C-118.81207163 4.26635221 -111.83543017 1.08094474 -103.08251953 0.97091675 C-102.39541429 0.96102565 -101.70830904 0.95113455 -101.00038242 0.94094372 C-98.70422908 0.90919041 -96.40805662 0.88444272 -94.11181641 0.85983276 C-92.48245309 0.83904536 -90.85309419 0.81790969 -89.22373962 0.79644775 C-84.83618575 0.74024676 -80.44858185 0.69077094 -76.06092453 0.64340591 C-73.33610578 0.6137992 -70.61130504 0.58286389 -67.88650513 0.55157471 C-45.25856802 0.29349138 -22.62943593 0.06164932 0 0 Z M-54.83056641 42.17623901 C-54.83056641 61.31623901 -54.83056641 80.45623901 -54.83056641 100.17623901 C-49.87118443 98.52311169 -45.96723338 96.66193964 -41.58056641 93.98873901 C-40.09566344 93.09942434 -38.60992623 92.21150173 -37.12353516 91.32467651 C-36.29901855 90.83193237 -35.47450195 90.33918823 -34.625 89.83151245 C-29.66253249 86.89201134 -24.66389798 84.01491305 -19.66638184 81.13555908 C-17.90708978 80.12181956 -16.14856897 79.10675224 -14.39013672 78.09152222 C-6.09091588 73.30641375 -6.09091588 73.30641375 -3.83056641 72.17623901 C-3.83056641 71.51623901 -3.83056641 70.85623901 -3.83056641 70.17623901 C-4.46220703 69.82545288 -5.09384766 69.47466675 -5.74462891 69.11325073 C-19.0556023 61.71213855 -32.2982107 54.23352166 -45.38720703 46.44528198 C-46.33660156 45.88470093 -47.28599609 45.32411987 -48.26416016 44.74655151 C-49.10003662 44.24913452 -49.93591309 43.75171753 -50.79711914 43.23922729 C-52.74355083 42.02181525 -52.74355083 42.02181525 -54.83056641 42.17623901 Z " fill="#F5F5F5" transform="translate(191.83056640625,85.82376098632813)"/>
</svg>
