<?xml version="1.0" encoding="UTF-8"?>
<svg version="1.1" xmlns="http://www.w3.org/2000/svg" width="315" height="315">
<path d="M0 0 C0.63631348 0.34788574 1.27262695 0.69577148 1.92822266 1.05419922 C10.97646722 6.04294874 18.86596759 11.78894017 26.54052734 18.69628906 C27.88882151 19.90068699 29.26557129 21.07302499 30.64453125 22.2421875 C59.88211836 47.38190807 77.91283342 86.50444861 80.85498047 124.66015625 C83.78054086 171.86313733 67.98267124 212.79241905 37 248 C17.91028586 269.53927923 -9.63265838 283.56705014 -37 291 C-38.1653125 291.31710937 -39.330625 291.63421875 -40.53125 291.9609375 C-80.83276857 301.65249316 -124.45021168 294.04828524 -159.66259766 272.49243164 C-180.58680799 259.24230921 -197.6372446 241.79110338 -211 221 C-211.37398926 220.42411133 -211.74797852 219.84822266 -212.13330078 219.25488281 C-233.87465394 185.28339144 -238.88415862 141.85426653 -230.56201172 102.95263672 C-224.076197 74.1722828 -209.40214382 49.85007785 -190 28 C-189.41992188 27.34644531 -188.83984375 26.69289062 -188.2421875 26.01953125 C-140.80723061 -24.15664174 -59.04533703 -32.89472156 0 0 Z " fill="#404040" transform="translate(234,19)"/>
<path d="M0 0 C1.39203558 -0.00627388 2.78406952 -0.01292148 4.17610168 -0.01991272 C8.72774107 -0.04084183 13.27938038 -0.05130314 17.83105469 -0.0612793 C19.4042945 -0.06533072 20.97753415 -0.06944775 22.55077362 -0.07362938 C29.94311265 -0.09265484 37.33544184 -0.1068926 44.72780061 -0.11524135 C53.23507402 -0.12501065 61.74208705 -0.15133317 70.24926877 -0.19174224 C76.84315999 -0.22197917 83.43697684 -0.23671729 90.030936 -0.24002236 C93.96102163 -0.24236371 97.89082823 -0.25120447 101.82083893 -0.27648354 C105.52115841 -0.29990347 109.22101782 -0.30394234 112.92139244 -0.29372215 C114.91000205 -0.29299728 116.89858904 -0.31198862 118.88710022 -0.33178711 C129.56737501 -0.27040648 138.72813175 1.67155925 146.60449219 9.2746582 C154.35004042 18.21324111 155.64980676 31.37532321 156.44042969 42.73950195 C156.51865967 43.83375488 156.59688965 44.92800781 156.67749023 46.05541992 C157.93479251 65.8459336 158.37129059 86.02254382 156.00292969 105.73950195 C155.83917847 107.12806396 155.83917847 107.12806396 155.67211914 108.54467773 C154.50580697 116.80293267 152.06038731 126.75567824 145.25292969 132.17700195 C133.61844217 139.44418935 122.24047228 140.47930964 108.78613281 140.45166016 C106.83512917 140.45932655 106.83512917 140.45932655 104.8447113 140.46714783 C101.3095837 140.48042221 97.77456375 140.48112974 94.23941612 140.47858453 C91.27489585 140.4775073 88.31039669 140.48241704 85.34588099 140.48718995 C78.34694462 140.49824428 71.34806194 140.49874504 64.34912109 140.49267578 C57.1559787 140.48663363 49.9630318 140.49896244 42.76992273 140.52024585 C36.56659538 140.53791801 30.36332996 140.54385455 24.15997839 140.54060811 C20.46699537 140.53880467 16.77415197 140.54133707 13.08119202 140.55532265 C8.96057624 140.57034753 4.84035355 140.56088202 0.71972656 140.54931641 C-1.0885537 140.56078201 -1.0885537 140.56078201 -2.93336487 140.57247925 C-13.99591813 140.5041207 -24.26583175 138.76547856 -32.74707031 131.17700195 C-46.11293409 115.64686264 -44.09752336 92.68106137 -44.06274414 73.51513672 C-44.05958547 69.8819369 -44.08311574 66.24955482 -44.10839844 62.61645508 C-44.22154088 21.71049517 -44.22154088 21.71049517 -32.79003906 9.0012207 C-22.8251008 -0.20158079 -12.89956443 0.02679037 0 0 Z " fill="#FEFEFE" transform="translate(100.7470703125,86.822998046875)"/>
<path d="M0 0 C4.34474663 1.44824888 7.30399545 2.58032593 11.09765625 4.8359375 C12.05462402 5.40030518 13.0115918 5.96467285 13.99755859 6.54614258 C15.00898926 7.14966553 16.02041992 7.75318848 17.0625 8.375 C19.20133703 9.63754224 21.34067043 10.89924393 23.48046875 12.16015625 C24.56118652 12.79840332 25.6419043 13.43665039 26.75537109 14.09423828 C31.77214062 17.0408826 36.82083538 19.93060356 41.875 22.8125 C43.21123413 23.57602783 43.21123413 23.57602783 44.57446289 24.35498047 C48.745652 26.75479035 48.745652 26.75479035 53 29 C53 29.66 53 30.32 53 31 C51.89785156 31.60585937 50.79570312 32.21171875 49.66015625 32.8359375 C38.99908237 38.71594711 28.46817307 44.78430234 18 51 C14.83499422 52.87782112 11.66799513 54.75222762 8.5 56.625 C7.76322021 57.06328125 7.02644043 57.5015625 6.26733398 57.953125 C1.11283235 61 1.11283235 61 0 61 C0 40.87 0 20.74 0 0 Z " fill="#424242" transform="translate(136,127)"/>
</svg>
